<svg width="24" height="24" viewBox="0 0 24 24" fill="none" xmlns="http://www.w3.org/2000/svg">
<path d="M12.5 8.00012C13.3284 8.00012 14 7.32855 14 6.50012C14 5.67169 13.3284 5.00012 12.5 5.00012C11.6716 5.00012 11 5.67169 11 6.50012C11 7.32855 11.6716 8.00012 12.5 8.00012Z" fill="black" fill-opacity="0.85"/>
<path d="M13.75 6.50012C13.75 7.19048 13.1904 7.75012 12.5 7.75012C11.8096 7.75012 11.25 7.19048 11.25 6.50012C11.25 5.80977 11.8096 5.25012 12.5 5.25012C13.1904 5.25012 13.75 5.80977 13.75 6.50012Z" stroke="black" stroke-opacity="0.85" stroke-width="0.5"/>
<path d="M12.5 14.0001C13.3284 14.0001 14 13.3285 14 12.5001C14 11.6717 13.3284 11.0001 12.5 11.0001C11.6716 11.0001 11 11.6717 11 12.5001C11 13.3285 11.6716 14.0001 12.5 14.0001Z" fill="black" fill-opacity="0.85"/>
<path d="M13.75 12.5001C13.75 13.1905 13.1904 13.7501 12.5 13.7501C11.8096 13.7501 11.25 13.1905 11.25 12.5001C11.25 11.8098 11.8096 11.2501 12.5 11.2501C13.1904 11.2501 13.75 11.8098 13.75 12.5001Z" stroke="black" stroke-opacity="0.85" stroke-width="0.5"/>
<path d="M12.5 19.5001C13.3284 19.5001 14 18.8285 14 18.0001C14 17.1717 13.3284 16.5001 12.5 16.5001C11.6716 16.5001 11 17.1717 11 18.0001C11 18.8285 11.6716 19.5001 12.5 19.5001Z" fill="black" fill-opacity="0.85"/>
<path d="M13.75 18.0001C13.75 18.6905 13.1904 19.2501 12.5 19.2501C11.8096 19.2501 11.25 18.6905 11.25 18.0001C11.25 17.3098 11.8096 16.7501 12.5 16.7501C13.1904 16.7501 13.75 17.3098 13.75 18.0001Z" stroke="black" stroke-opacity="0.85" stroke-width="0.5"/>
</svg>
