<svg width="25" height="24" viewBox="0 0 25 24" fill="none" xmlns="http://www.w3.org/2000/svg">
<path d="M11.6616 21C16.9083 21 21.1616 16.7467 21.1616 11.5C21.1616 6.25329 16.9083 2 11.6616 2C6.41492 2 2.16162 6.25329 2.16162 11.5C2.16162 16.7467 6.41492 21 11.6616 21Z" stroke="#D3B474" stroke-width="1.5" stroke-linecap="round" stroke-linejoin="round"/>
<path d="M22.1616 22L20.1616 20" stroke="#D3B474" stroke-width="1.5" stroke-linecap="round" stroke-linejoin="round"/>
<path d="M9.93424 12.1915C8.11119 12.1915 6.0748 9.3406 7.29664 8.17695C8.34392 7.18785 10.6518 8.6812 11.0979 10.4267C11.35 11.4158 10.8652 12.1915 9.93424 12.1915ZM8.14998 8.64241C7.06391 8.64241 8.0918 10.8921 9.58515 11.3576C10.7876 11.7067 10.4967 10.3297 9.64333 9.45697C9.13908 8.91393 8.53786 8.64241 8.14998 8.64241Z" fill="#D3B474" stroke="#D3B474" stroke-width="0.3"/>
<path d="M17.0133 15.1393C16.897 15.1393 16.8 15.0811 16.7224 14.9842C15.1903 13.1999 11.7963 14.0145 10.1866 11.8423C9.89567 11.435 10.5163 10.9696 10.8072 11.3769C12.1842 13.2387 15.5976 12.4435 17.3042 14.4993C17.5176 14.7514 17.343 15.1393 17.0133 15.1393Z" fill="#D3B474" stroke="#D3B474" stroke-width="0.3"/>
</svg>
