<svg width="30" height="30" viewBox="0 0 30 30" fill="none" xmlns="http://www.w3.org/2000/svg">
<path fill-rule="evenodd" clip-rule="evenodd" d="M15 30C23.2843 30 30 23.2843 30 15C30 6.71572 23.2843 0 15 0C6.71572 0 0 6.71572 0 15C0 23.2843 6.71572 30 15 30ZM22.0881 11.7756C22.6373 11.2264 22.6373 10.3361 22.0881 9.78688C21.5389 9.23771 20.6486 9.23771 20.0994 9.78688L12.6562 17.23L9.90062 14.4744C9.35145 13.9252 8.46105 13.9252 7.91188 14.4744C7.36271 15.0236 7.36271 15.9139 7.91188 16.4631L11.6619 20.2131C12.2111 20.7623 13.1014 20.7623 13.6506 20.2131L22.0881 11.7756Z" fill="#D3B474"/>
</svg>
