<svg width="16" height="16" viewBox="0 0 16 16" fill="none" xmlns="http://www.w3.org/2000/svg">
<circle cx="8" cy="8" r="7" stroke="#1B1D28"/>
<path fill-rule="evenodd" clip-rule="evenodd" d="M4.79048 4.79011C4.89595 4.68478 5.03892 4.62561 5.18798 4.62561C5.33704 4.62561 5.48001 4.68478 5.58548 4.79011L8.00048 7.20511L10.4155 4.79011C10.467 4.73485 10.5291 4.69052 10.5981 4.65978C10.6671 4.62904 10.7416 4.61251 10.8171 4.61117C10.8926 4.60984 10.9676 4.62373 11.0377 4.65202C11.1077 4.68031 11.1713 4.72242 11.2247 4.77583C11.2782 4.82925 11.3203 4.89288 11.3486 4.96291C11.3768 5.03296 11.3908 5.10798 11.3894 5.1835C11.3881 5.25904 11.3716 5.33352 11.3408 5.40252C11.3101 5.47152 11.2658 5.53362 11.2105 5.58511L8.79548 8.00011L11.2105 10.4151C11.2658 10.4666 11.3101 10.5287 11.3408 10.5977C11.3716 10.6667 11.3881 10.7412 11.3894 10.8167C11.3908 10.8923 11.3768 10.9673 11.3486 11.0373C11.3203 11.1074 11.2782 11.171 11.2247 11.2244C11.1713 11.2778 11.1077 11.3199 11.0377 11.3482C10.9676 11.3765 10.8926 11.3904 10.8171 11.3891C10.7416 11.3877 10.6671 11.3712 10.5981 11.3405C10.5291 11.3097 10.467 11.2654 10.4155 11.2101L8.00048 8.79511L5.58548 11.2101C5.47885 11.3095 5.33781 11.3636 5.19208 11.361C5.04636 11.3584 4.90732 11.2994 4.80426 11.1963C4.7012 11.0933 4.64217 10.9542 4.6396 10.8085C4.63702 10.6628 4.69112 10.5218 4.79048 10.4151L7.20548 8.00011L4.79048 5.58511C4.68514 5.47965 4.62598 5.33668 4.62598 5.18761C4.62598 5.03855 4.68514 4.89559 4.79048 4.79011Z" fill="#1B1D28"/>
</svg>
