<svg width="30" height="30" viewBox="0 0 30 30" fill="none" xmlns="http://www.w3.org/2000/svg">
<circle cx="15" cy="15" r="15" fill="#1B1D28"/>
<path d="M6.75848 18.2317L6.80271 18.2464L6.84842 18.2555C6.8632 18.2584 6.87807 18.2614 6.89304 18.2644C7.37441 18.3606 7.95062 18.4757 8.43806 18.4757C12.9524 18.4757 16.6083 14.9733 16.6083 10.5257C16.6083 9.21034 16.3879 8.08458 15.7443 6.77318C15.7538 6.76705 15.7598 6.76416 15.7631 6.76272L15.7632 6.76265C15.7679 6.7606 15.7836 6.75361 15.8246 6.751C20.0657 7.24596 23.25 10.8287 23.25 14.9486C23.25 19.4592 19.4758 23.25 14.7247 23.25C11.088 23.25 7.9918 21.2544 6.7727 18.2911C6.76581 18.2686 6.76079 18.2486 6.75724 18.2313C6.75764 18.2314 6.75805 18.2315 6.75848 18.2317Z" stroke="white" stroke-width="1.5"/>
</svg>
