<svg width="25" height="25" viewBox="0 0 25 25" fill="none" xmlns="http://www.w3.org/2000/svg">
<g clip-path="url(#clip0_907_1071)">
<path d="M14.698 3.15818C14.6483 3.17538 14.6026 3.20218 14.5633 3.23707C14.524 3.27195 14.492 3.31424 14.469 3.3615C14.4461 3.40876 14.4327 3.46008 14.4296 3.51253C14.4265 3.56497 14.4338 3.61751 14.451 3.66715C14.4682 3.71679 14.495 3.76256 14.5299 3.80184C14.5648 3.84112 14.607 3.87315 14.6543 3.89609C14.7016 3.91903 14.7529 3.93243 14.8053 3.93553C14.8578 3.93864 14.9103 3.93138 14.96 3.91418C17.3456 3.08753 19.8386 3.45157 21.4658 4.86409C22.6431 5.88606 23.8892 7.91076 23.1401 11.7529C22.1505 16.8272 18.4101 20.7725 13.3799 22.0489C12.5177 22.2648 11.6785 22.2478 10.7381 21.9952C5.82185 20.6846 2.16131 16.76 1.18509 11.7529C0.50301 8.2542 1.38852 5.60103 3.67844 4.28207C6.11259 2.88005 9.56991 3.34001 11.8992 5.37565C11.9388 5.41023 11.9848 5.43667 12.0346 5.45347C12.0843 5.47027 12.1369 5.4771 12.1893 5.47357C12.2418 5.47004 12.293 5.45622 12.34 5.4329C12.3871 5.40958 12.4291 5.37721 12.4637 5.33765C12.5335 5.25776 12.5687 5.15341 12.5616 5.04755C12.5545 4.94169 12.5056 4.843 12.4258 4.77318C7.59987 0.555919 -1.41637 2.59047 0.399698 11.9059C1.41202 17.0975 5.28169 21.3686 10.5312 22.768C11.6335 23.0641 12.599 23.0692 13.5754 22.8247C19.1019 21.4224 22.9269 17.0255 23.9254 11.906C25.404 4.32087 19.6533 1.44113 14.698 3.15818Z" fill="#D3B474"/>
<path d="M11.9324 12.7069C11.1107 12.788 10.6966 13.7483 11.2073 14.3993C11.9969 15.4058 13.0646 16.0993 14.2949 16.4046C14.3977 16.4296 14.5063 16.4129 14.5968 16.3581C14.6873 16.3033 14.7524 16.2149 14.7779 16.1122C14.8034 16.0095 14.7871 15.9009 14.7327 15.8102C14.6783 15.7194 14.5902 15.6539 14.4876 15.628C13.4319 15.3661 12.5153 14.7705 11.8368 13.9055C11.8032 13.8623 11.7847 13.8093 11.7842 13.7545C11.7837 13.6998 11.8013 13.6464 11.8341 13.6027C11.9219 13.4857 12.0903 13.4681 12.1964 13.5632C13.2261 14.4859 14.6098 14.9452 15.9923 14.8232C16.098 14.8139 16.1956 14.763 16.2638 14.6816C16.3319 14.6003 16.365 14.4952 16.3557 14.3895C16.3463 14.2839 16.2954 14.1862 16.2141 14.118C16.1327 14.0499 16.0277 14.0169 15.922 14.0262C14.7416 14.1303 13.6084 13.7541 12.7303 12.9673C12.6226 12.8711 12.496 12.7983 12.3587 12.7534C12.2213 12.7086 12.0762 12.6928 11.9324 12.7069Z" fill="#D3B474"/>
<path d="M15.2242 13.7855C15.4428 13.811 15.6409 13.6538 15.6667 13.4347C15.6924 13.2157 15.5353 13.017 15.3162 12.9908C15.3035 12.9892 14.0417 12.8274 13.653 11.857C13.5014 11.4785 13.5353 11.0515 13.7461 10.6856C14.2012 9.89537 14.2171 9.53683 14.2325 9.19009C14.2445 8.91675 14.256 8.65852 14.5737 8.02494C14.809 7.55559 15.4286 7.09878 16.152 6.8611C16.6442 6.69943 17.6164 6.49946 18.5981 6.97657C21.0776 8.18151 21.1879 11.5119 18.7985 13.3438C18.7225 13.402 18.67 13.4855 18.6503 13.5792C18.2875 15.3087 17.4234 16.8264 16.2172 17.8527C15.1125 18.7925 13.8152 19.2326 12.6581 19.06C11.3365 18.8629 10.3774 17.9051 9.80548 17.1363C9.40738 16.6013 8.7158 16.3922 8.08462 16.6163C7.921 16.6744 7.27967 16.9116 7.12915 16.9653C6.97143 17.0219 6.79926 17.0237 6.64035 16.9706C6.48145 16.9174 6.34503 16.8124 6.25305 16.6723L6.08718 16.4208C5.90076 16.138 6.12248 15.7633 6.46047 15.7911C6.51815 15.7955 6.57419 15.8123 6.62476 15.8404C6.67534 15.8685 6.71925 15.9071 6.75351 15.9538L6.90198 16.1532C6.96483 16.2376 7.05843 16.2939 7.16249 16.3097C7.26654 16.3256 7.37266 16.2999 7.45784 16.238C8.53417 15.4568 9.37632 15.152 9.82923 15.3799C10.3702 15.652 10.5856 16.7405 11.7328 17.1139C12.0269 17.2097 12.3409 17.2445 12.6662 17.2175C12.8864 17.1993 13.0501 17.006 13.0319 16.7858C13.0136 16.5655 12.8196 16.4019 12.6001 16.4201C12.3814 16.4382 12.1729 16.4157 11.9804 16.3531C11.1241 16.0744 11.0068 15.0766 10.1888 14.6651C9.48274 14.3099 8.53722 14.5398 7.30512 15.3685C7.10063 15.1517 6.82319 15.0183 6.52618 14.9937C5.52666 14.9111 4.86498 16.0205 5.41915 16.8612L5.58502 17.1128C5.77532 17.4027 6.05761 17.6201 6.38647 17.73C6.71532 17.84 7.07161 17.8361 7.39799 17.719C7.55136 17.6643 8.19358 17.4267 8.3522 17.3704C8.65039 17.2646 8.97638 17.3625 9.1635 17.614C10.1427 18.9302 11.4979 19.8967 13.1588 19.8967C15.6227 19.8967 18.5306 17.7449 19.4022 13.8868C22.134 11.6784 21.932 7.70726 18.9479 6.25698C17.0136 5.31707 14.5534 6.28053 13.8585 7.66635C13.4642 8.4526 13.4477 8.82564 13.4332 9.15478C13.4205 9.43992 13.4106 9.66514 13.0528 10.2863C12.7189 10.866 12.667 11.547 12.9104 12.1545C13.4767 13.5685 15.1531 13.7773 15.2242 13.7855Z" fill="#D3B474"/>
<path d="M16.9257 11.6527C16.8208 11.656 16.7213 11.7005 16.6488 11.7765C16.5764 11.8525 16.5367 11.9539 16.5384 12.0589C16.54 12.1639 16.5829 12.264 16.6577 12.3377C16.7326 12.4113 16.8334 12.4526 16.9384 12.4526C17.7141 12.4526 18.4292 11.775 18.434 11.1164C18.4368 10.7284 18.1747 10.2629 17.4266 10.2278C17.3741 10.2253 17.3217 10.2332 17.2722 10.251C17.2228 10.2688 17.1773 10.2962 17.1385 10.3315C17.0996 10.3669 17.0681 10.4096 17.0458 10.4572C17.0235 10.5047 17.0107 10.5562 17.0083 10.6087C17.0059 10.6612 17.0138 10.7137 17.0316 10.7631C17.0494 10.8125 17.0767 10.8579 17.1121 10.8968C17.1475 10.9356 17.1902 10.9671 17.2377 10.9895C17.2853 11.0118 17.3367 11.0246 17.3892 11.027C17.5603 11.035 17.6247 11.0796 17.6315 11.0901C17.638 11.1032 17.6367 11.1744 17.5757 11.2763C17.4676 11.4567 17.2246 11.6431 16.9257 11.6527ZM15.2006 9.80413L15.0758 10.0954C15.0551 10.1437 15.0441 10.1955 15.0435 10.2481C15.0428 10.3006 15.0526 10.3528 15.0721 10.4015C15.0916 10.4503 15.1205 10.4948 15.1572 10.5324C15.1939 10.57 15.2376 10.6 15.2859 10.6207C15.3342 10.6413 15.3861 10.6523 15.4386 10.653C15.4912 10.6536 15.5433 10.6439 15.5921 10.6244C15.6409 10.6049 15.6853 10.5759 15.7229 10.5392C15.7605 10.5025 15.7905 10.4588 15.8112 10.4105L15.936 10.1193C15.9567 10.071 15.9677 10.0191 15.9683 9.96656C15.969 9.91402 15.9593 9.86188 15.9398 9.8131C15.9202 9.76432 15.8913 9.71987 15.8546 9.68227C15.8179 9.64468 15.7742 9.61467 15.7259 9.59398C15.6776 9.57329 15.6257 9.56231 15.5732 9.56167C15.5206 9.56104 15.4685 9.57075 15.4197 9.59027C15.3709 9.60978 15.3265 9.63871 15.2889 9.67541C15.2513 9.7121 15.2213 9.75584 15.2006 9.80413ZM5.91787 11.709C6.9563 12.5724 8.47898 11.1424 9.72008 13.1928C9.77503 13.2835 9.86377 13.3488 9.9668 13.3741C10.0698 13.3994 10.1787 13.3828 10.2695 13.3279C10.3602 13.2729 10.4254 13.1842 10.4508 13.0811C10.4761 12.9781 10.4595 12.8693 10.4045 12.7785C9.41745 11.1478 8.2064 11.1864 7.32184 11.2144C6.32547 11.246 6.21236 11.1954 6.19336 9.9207C6.17666 8.80516 6.15145 7.11936 3.86478 6.17114C3.76696 6.1315 3.65745 6.13211 3.56008 6.17285C3.46272 6.21359 3.3854 6.29115 3.34497 6.38865C3.30454 6.48614 3.30427 6.59566 3.34423 6.69334C3.38418 6.79103 3.46113 6.86897 3.55829 6.91018C6.5595 8.15473 4.62617 10.6351 5.91787 11.709Z" fill="#D3B474"/>
</g>
<defs>
<clipPath id="clip0_907_1071">
<rect width="24" height="24" fill="white" transform="translate(0.161621 0.838623)"/>
</clipPath>
</defs>
</svg>
