<svg width="25" height="24" viewBox="0 0 25 24" fill="none" xmlns="http://www.w3.org/2000/svg">
<path d="M8.16162 2V5" stroke="#D3B474" stroke-width="1.5" stroke-miterlimit="10" stroke-linecap="round" stroke-linejoin="round"/>
<path d="M16.1616 2V5" stroke="#D3B474" stroke-width="1.5" stroke-miterlimit="10" stroke-linecap="round" stroke-linejoin="round"/>
<path d="M3.66162 9.08997H20.6616" stroke="#D3B474" stroke-width="1.5" stroke-miterlimit="10" stroke-linecap="round" stroke-linejoin="round"/>
<path d="M19.3717 15.77L15.8317 19.31C15.6917 19.45 15.5617 19.71 15.5317 19.9L15.3417 21.25C15.2717 21.74 15.6117 22.0801 16.1017 22.0101L17.4517 21.82C17.6417 21.79 17.9117 21.66 18.0417 21.52L21.5817 17.9801C22.1917 17.3701 22.4817 16.6601 21.5817 15.7601C20.6917 14.8701 19.9817 15.16 19.3717 15.77Z" stroke="#D3B474" stroke-width="1.5" stroke-miterlimit="10" stroke-linecap="round" stroke-linejoin="round"/>
<path d="M18.8618 16.28C19.1618 17.36 20.0018 18.2 21.0818 18.5" stroke="#D3B474" stroke-width="1.5" stroke-miterlimit="10" stroke-linecap="round" stroke-linejoin="round"/>
<path d="M12.1616 22H8.16162C4.66162 22 3.16162 20 3.16162 17V8.5C3.16162 5.5 4.66162 3.5 8.16162 3.5H16.1616C19.6616 3.5 21.1616 5.5 21.1616 8.5V12" stroke="#D3B474" stroke-width="1.5" stroke-miterlimit="10" stroke-linecap="round" stroke-linejoin="round"/>
<path d="M12.1571 13.7H12.1661" stroke="#D3B474" stroke-width="2" stroke-linecap="round" stroke-linejoin="round"/>
<path d="M8.45593 13.7H8.46492" stroke="#D3B474" stroke-width="2" stroke-linecap="round" stroke-linejoin="round"/>
<path d="M8.45593 16.7H8.46492" stroke="#D3B474" stroke-width="2" stroke-linecap="round" stroke-linejoin="round"/>
</svg>
