<svg width="25" height="25" viewBox="0 0 25 25" fill="none" xmlns="http://www.w3.org/2000/svg">
<path d="M21.1616 12.5C21.1616 17.75 16.9116 22 11.6616 22C6.41162 22 2.16162 17.75 2.16162 12.5C2.16162 7.25 6.41162 3 11.6616 3" stroke="#D3B474" stroke-width="1.5" stroke-linecap="round" stroke-linejoin="round"/>
<path d="M22.1616 23L20.1616 21" stroke="#D3B474" stroke-width="1.5" stroke-linecap="round" stroke-linejoin="round"/>
<path d="M11.944 6.62625C8.87366 6.77073 6.42925 9.3884 6.49503 12.4614C6.56079 15.5345 9.11221 17.9171 12.1826 17.7726C15.253 17.6281 17.6974 15.0104 17.6316 11.9374C17.6038 10.6366 17.1305 9.45963 16.3611 8.54558L17.651 7.16419L18.5973 8.04783C18.8586 8.29185 19.2734 8.27231 19.5238 8.00423C19.7741 7.73615 19.7652 7.32101 19.5039 7.07699L18.5576 6.19335L19.8346 4.82592C20.0849 4.55781 20.076 4.14267 19.8147 3.89863C19.5534 3.65461 19.1386 3.67415 18.8882 3.94224L17.6113 5.30966L16.665 4.426C16.4037 4.18198 15.9889 4.20152 15.7386 4.46961C15.4883 4.73769 15.4971 5.15283 15.7584 5.39685L16.7047 6.28051L15.4148 7.66187C14.4502 6.95681 13.2437 6.56509 11.944 6.62625ZM16.3214 11.999C16.3717 14.349 14.5025 16.3508 12.1545 16.4613C9.80665 16.5717 7.85552 14.7499 7.80519 12.3998C7.75489 10.0498 9.62413 8.04807 11.9721 7.93758C14.32 7.82711 16.2711 9.64907 16.3214 11.999Z" fill="#D3B474"/>
</svg>
