<svg width="24" height="15" viewBox="0 0 24 15" fill="none" xmlns="http://www.w3.org/2000/svg">
<path d="M22.2026 0H1.79742C0.804703 0 0 0.767645 0 1.71465V5H24V1.71465C24 0.767645 23.1953 0 22.2026 0Z" fill="#FAB446"/>
<path d="M0 13.2854C0 14.2323 0.804703 15 1.79742 15H22.2026C23.1952 15 24 14.2324 24 13.2854V10H0V13.2854Z" fill="#73AF00"/>
<path d="M0 4.99988H24V9.99961H0V4.99988Z" fill="#F5F5F5"/>
<path d="M12 9.6217C10.7736 9.6217 9.77588 8.66995 9.77588 7.5C9.77588 6.33004 10.7736 5.3783 12 5.3783C13.2264 5.3783 14.2241 6.33004 14.2241 7.5C14.2241 8.66995 13.2264 9.6217 12 9.6217ZM12 5.77301C11.0017 5.77301 10.1896 6.54763 10.1896 7.5C10.1896 8.45236 11.0017 9.22698 12 9.22698C12.9983 9.22698 13.8104 8.45236 13.8104 7.5C13.8104 6.54763 12.9983 5.77301 12 5.77301Z" fill="#41479B"/>
<path d="M12.0002 7.74046C12.1394 7.74046 12.2523 7.63277 12.2523 7.49993C12.2523 7.36709 12.1394 7.2594 12.0002 7.2594C11.8609 7.2594 11.748 7.36709 11.748 7.49993C11.748 7.63277 11.8609 7.74046 12.0002 7.74046Z" fill="#41479B"/>
<path d="M12.0001 7.5361L11.3593 7.59781L9.98291 7.5361V7.46393L11.3593 7.40222L12.0001 7.46393V7.5361ZM12.0001 7.5361L12.6409 7.59781L14.0173 7.5361V7.46393L12.6409 7.40222L12.0001 7.46393V7.5361Z" fill="#41479B"/>
<path d="M11.9621 7.50001L11.8975 6.88873L11.9621 5.57568H12.0378L12.1025 6.88873L12.0378 7.50001H11.9621ZM11.9621 7.50001L11.8975 8.11128L11.9621 9.42433H12.0378L12.1025 8.11128L12.0378 7.50001H11.9621Z" fill="#41479B"/>
<path d="M11.9733 7.52546L11.4744 7.13692L10.5469 6.16479L10.6004 6.11377L11.6194 6.99862L12.0267 7.47449L11.9733 7.52546Z" fill="#41479B"/>
<path d="M11.9731 7.52546L12.3804 8.00134L13.3995 8.88618L13.453 8.83516L12.5254 7.86303L12.0266 7.47449L11.9731 7.52546Z" fill="#41479B"/>
<path d="M11.9731 7.47449L12.3804 6.99862L13.3995 6.11377L13.453 6.16479L12.5254 7.13692L12.0266 7.52546L11.9731 7.47449Z" fill="#41479B"/>
<path d="M11.9733 7.47449L11.4744 7.86303L10.5469 8.83516L10.6004 8.88618L11.6194 8.00134L12.0267 7.52546L11.9733 7.47449Z" fill="#41479B"/>
<path d="M12.0147 7.53339L11.4474 7.82432L10.151 8.26978L10.1221 8.20311L11.369 7.64362L11.9857 7.46667L12.0147 7.53339Z" fill="#41479B"/>
<path d="M12.0143 7.53333L12.6311 7.35639L13.878 6.7969L13.849 6.73022L12.5526 7.17569L11.9854 7.46661L12.0143 7.53333Z" fill="#41479B"/>
<path d="M11.9648 7.51372L11.6598 6.97256L11.1929 5.73589L11.2628 5.70825L11.8493 6.89775L12.0347 7.48608L11.9648 7.51372Z" fill="#41479B"/>
<path d="M11.9648 7.51384L12.1503 8.10217L12.7368 9.29167L12.8067 9.26404L12.3398 8.02736L12.0348 7.48621L11.9648 7.51384Z" fill="#41479B"/>
<path d="M11.9857 7.53333L11.369 7.35639L10.1221 6.7969L10.151 6.73022L11.4474 7.17569L12.0147 7.46661L11.9857 7.53333ZM11.9857 7.53333L12.553 7.82425L13.8494 8.26972L13.8784 8.20305L12.6314 7.64356L12.0147 7.46661L11.9857 7.53333Z" fill="#41479B"/>
<path d="M11.9648 7.48608L12.1503 6.89775L12.7368 5.70825L12.8067 5.73589L12.3397 6.97256L12.0347 7.51372L11.9648 7.48608ZM11.9648 7.48608L11.6598 8.02724L11.1929 9.26392L11.2628 9.29155L11.8493 8.10205L12.0347 7.51372L11.9648 7.48608Z" fill="#41479B"/>
<path d="M11.9998 7.82446C12.1876 7.82446 12.3399 7.67919 12.3399 7.5C12.3399 7.3208 12.1876 7.17554 11.9998 7.17554C11.8119 7.17554 11.6597 7.3208 11.6597 7.5C11.6597 7.67919 11.8119 7.82446 11.9998 7.82446Z" fill="#F5F5F5"/>
<path d="M12.0003 7.69454C12.113 7.69454 12.2043 7.60743 12.2043 7.49998C12.2043 7.39253 12.113 7.30542 12.0003 7.30542C11.8877 7.30542 11.7964 7.39253 11.7964 7.49998C11.7964 7.60743 11.8877 7.69454 12.0003 7.69454Z" fill="#41479B"/>
</svg>
