<svg width="25" height="24" viewBox="0 0 25 24" fill="none" xmlns="http://www.w3.org/2000/svg">
<path d="M21.1616 11.5C21.1616 16.75 16.9116 21 11.6616 21C6.41162 21 2.16162 16.75 2.16162 11.5C2.16162 6.25 6.41162 2 11.6616 2" stroke="#D3B474" stroke-width="1.5" stroke-linecap="round" stroke-linejoin="round"/>
<path d="M22.1616 22L20.1616 20" stroke="#D3B474" stroke-width="1.5" stroke-linecap="round" stroke-linejoin="round"/>
<path d="M21.9908 1.61705C21.983 1.55595 21.9696 1.49716 21.9473 1.442C21.9466 1.44067 21.9466 1.43872 21.9462 1.437C21.9462 1.43664 21.9459 1.43629 21.9455 1.43598C21.921 1.37785 21.8874 1.32512 21.8496 1.27616C21.8402 1.26461 21.8311 1.25314 21.8212 1.24229C21.7807 1.19661 21.7368 1.15442 21.6858 1.12002C21.6844 1.11896 21.6827 1.11865 21.6813 1.11758C21.632 1.08509 21.5775 1.06052 21.5205 1.04117C21.5063 1.03613 21.4924 1.03183 21.4779 1.02802C21.4181 1.01178 21.3565 1 21.2917 1H16.3333C15.9423 1 15.625 1.31733 15.625 1.70833C15.625 2.09933 15.9423 2.41667 16.3333 2.41667H19.5814L15.3537 6.64435C14.2263 5.74273 12.8384 5.25 11.375 5.25C7.85998 5.25 5 8.10998 5 11.625C5 15.14 7.85998 18 11.375 18C14.89 18 17.75 15.14 17.75 11.625C17.75 10.1623 17.2577 8.77471 16.3553 7.64634L20.5833 3.41829V6.66667C20.5833 7.05767 20.9007 7.375 21.2917 7.375C21.6827 7.375 22 7.05767 22 6.66667V1.70833C22 1.69346 21.9965 1.67929 21.9957 1.66477C21.9946 1.6488 21.993 1.63291 21.9908 1.61705ZM11.375 16.5833C8.64074 16.5833 6.41667 14.3593 6.41667 11.625C6.41667 8.89074 8.64074 6.66667 11.375 6.66667C12.6988 6.66667 13.9451 7.18198 14.8823 8.11583C15.818 9.05486 16.3333 10.3012 16.3333 11.625C16.3333 14.3593 14.1093 16.5833 11.375 16.5833Z" fill="#D3B474"/>
</svg>
