<svg width="23" height="28" viewBox="0 0 23 28" fill="none" xmlns="http://www.w3.org/2000/svg">
<path d="M13.0332 4.87667C12.8829 4.87667 12.7387 4.81521 12.6324 4.70581C12.5261 4.59642 12.4664 4.44804 12.4664 4.29333V2.33333C12.4664 1.6905 11.9574 1.16667 11.3327 1.16667C10.708 1.16667 10.199 1.6905 10.199 2.33333V4.29333C10.199 4.44804 10.1393 4.59642 10.033 4.70581C9.92666 4.81521 9.78248 4.87667 9.63214 4.87667C9.4818 4.87667 9.33762 4.81521 9.23132 4.70581C9.12501 4.59642 9.06529 4.44804 9.06529 4.29333V2.33333C9.06529 1.0465 10.0822 0 11.3327 0C12.5832 0 13.6001 1.0465 13.6001 2.33333V4.29333C13.6001 4.44804 13.5404 4.59642 13.4341 4.70581C13.3277 4.81521 13.1836 4.87667 13.0332 4.87667ZM11.3327 28C9.14465 28 7.36475 26.1683 7.36475 23.9167C7.36475 23.762 7.42447 23.6136 7.53077 23.5042C7.63708 23.3948 7.78126 23.3333 7.93159 23.3333C8.08193 23.3333 8.22611 23.3948 8.33242 23.5042C8.43872 23.6136 8.49844 23.762 8.49844 23.9167C8.49844 25.5243 9.77045 26.8333 11.3327 26.8333C12.8949 26.8333 14.1669 25.5243 14.1669 23.9167C14.1669 23.762 14.2266 23.6136 14.333 23.5042C14.4393 23.3948 14.5834 23.3333 14.7338 23.3333C14.8841 23.3333 15.0283 23.3948 15.1346 23.5042C15.2409 23.6136 15.3006 23.762 15.3006 23.9167C15.3006 26.1683 13.5207 28 11.3327 28Z" fill="#1B1D28"/>
<path d="M20.9697 24.5H1.69683C1.34977 24.4987 1.01137 24.3884 0.726958 24.1837C0.442543 23.979 0.225694 23.6898 0.105456 23.3548C-0.0147823 23.0197 -0.0326673 22.6549 0.054196 22.3091C0.141059 21.9633 0.328523 21.6531 0.591478 21.42C1.47086 20.6582 2.17768 19.7077 2.66238 18.6352C3.14709 17.5626 3.39795 16.3939 3.39738 15.211V11.6667C3.39738 7.16333 6.95718 3.5 11.3333 3.5C15.7093 3.5 19.2691 7.16333 19.2691 11.6667V15.211C19.2691 17.6062 20.2883 19.866 22.066 21.4118C22.332 21.6434 22.5225 21.9534 22.6118 22.3C22.7011 22.6465 22.6849 23.013 22.5653 23.3497C22.4458 23.6865 22.2287 23.9774 21.9433 24.1831C21.6579 24.3888 21.3181 24.4994 20.9697 24.5ZM11.3333 4.66667C7.58185 4.66667 4.53107 7.80617 4.53107 11.6667V15.211C4.53233 16.5615 4.24674 17.8961 3.69431 19.1211C3.14187 20.3462 2.33594 21.4322 1.33292 22.3032C1.24384 22.3801 1.17991 22.4833 1.1498 22.5989C1.11968 22.7145 1.12484 22.8368 1.16457 22.9493C1.2043 23.0618 1.27668 23.1589 1.37189 23.2276C1.46711 23.2963 1.58055 23.3332 1.69683 23.3333H20.9697C21.0856 23.3333 21.1987 23.2968 21.2937 23.2286C21.3888 23.1605 21.4613 23.064 21.5015 22.9521C21.5416 22.8402 21.5475 22.7184 21.5183 22.603C21.4891 22.4876 21.4262 22.3842 21.3381 22.3067C20.3342 21.4355 19.5274 20.349 18.9742 19.1234C18.421 17.8977 18.1347 16.5624 18.1354 15.211V11.6667C18.1354 7.80617 15.0847 4.66667 11.3333 4.66667Z" fill="#1B1D28"/>
</svg>
