<svg width="25" height="24" viewBox="0 0 25 24" fill="none" xmlns="http://www.w3.org/2000/svg">
<path d="M13.2307 22.0428C8.12781 22.0428 3.98633 17.9013 3.98633 12.7985C3.98633 7.69556 8.12781 3.55408 13.2307 3.55408C18.3336 3.55408 22.4751 7.69556 22.4751 12.7985" stroke="#D3B474" stroke-width="1.5" stroke-linecap="round" stroke-linejoin="round"/>
<path d="M13.2305 7.25159V12.5341" stroke="#D3B474" stroke-width="1.5" stroke-linecap="round" stroke-linejoin="round"/>
<path d="M10.061 0.91272H16.4" stroke="#D3B474" stroke-width="1.5" stroke-miterlimit="10" stroke-linecap="round" stroke-linejoin="round"/>
<path d="M19.2494 17.7927C19.2063 17.7856 19.156 17.7856 19.113 17.7927C18.122 17.7568 17.332 16.9454 17.332 15.94C17.332 14.9131 18.1579 14.0873 19.1848 14.0873C20.2117 14.0873 21.0375 14.9203 21.0375 15.94C21.0303 16.9454 20.2404 17.764 19.2494 17.7927Z" stroke="#D3B474" stroke-width="1.2" stroke-linecap="round" stroke-linejoin="round"/>
<path d="M17.1598 20.055C16.1473 20.7301 16.1473 21.836 17.1598 22.511C18.3088 23.2794 20.1902 23.2794 21.3392 22.511C22.3518 21.836 22.3518 20.7301 21.3392 20.055C20.1974 19.2938 18.3088 19.2938 17.1598 20.055Z" stroke="#D3B474" stroke-width="1.2" stroke-linecap="round" stroke-linejoin="round"/>
</svg>
