<svg width="24" height="24" viewBox="0 0 24 24" fill="none" xmlns="http://www.w3.org/2000/svg">
<path d="M12 12C14.7614 12 17 9.76142 17 7C17 4.23858 14.7614 2 12 2C9.23858 2 7 4.23858 7 7C7 9.76142 9.23858 12 12 12Z" stroke="#D3B474" stroke-width="1.5" stroke-linecap="round" stroke-linejoin="round"/>
<path d="M3.41016 22C3.41016 18.13 7.26015 15 12.0002 15C12.9602 15 13.8902 15.13 14.7602 15.37" stroke="#D3B474" stroke-width="1.5" stroke-linecap="round" stroke-linejoin="round"/>
<path d="M21.2917 18.2126C21.2917 20.3033 19.5949 22 17.5042 22C15.4136 22 13.7168 20.3033 13.7168 18.2126C13.7168 16.1219 15.4136 14.4252 17.5042 14.4252C19.5949 14.4252 21.2917 16.1219 21.2917 18.2126Z" stroke="#D3B474" stroke-width="1.2" stroke-linecap="round" stroke-linejoin="round"/>
<path d="M17.5044 15.9401V18.1043" stroke="#D3B474" stroke-width="1.2" stroke-linecap="round" stroke-linejoin="round"/>
<path d="M16.2056 12.7161H18.8027" stroke="#D3B474" stroke-width="1.2" stroke-miterlimit="10" stroke-linecap="round" stroke-linejoin="round"/>
</svg>
