<svg width="24" height="24" viewBox="0 0 24 24" fill="none" xmlns="http://www.w3.org/2000/svg">
<path d="M9.72693 10.4675C9.86209 10.6859 10.0966 10.8163 10.3543 10.8163C10.4911 10.8163 10.6248 10.7783 10.7411 10.7064L12.1579 9.8298C12.5033 9.6161 12.6103 9.16115 12.3967 8.81569L11.225 6.92205C11.0898 6.70364 10.8553 6.57324 10.5976 6.57324C10.4609 6.57324 10.3271 6.61127 10.2109 6.68313L8.79425 7.55965C8.44878 7.77335 8.34162 8.2283 8.55532 8.57382L9.72693 10.4675Z" fill="#D3B474"/>
<path d="M21.0472 4.20807L19.1617 1.16062C19.0369 0.958991 18.8205 0.838623 18.5826 0.838623C18.4563 0.838623 18.333 0.873702 18.2255 0.94012L17.5821 1.33829C17.506 1.3851 17.4399 1.44655 17.3878 1.51908C17.3356 1.59162 17.2984 1.67378 17.2782 1.76082C17.2547 1.8596 17.2536 1.9624 17.2752 2.06163C17.2905 2.1319 17.315 2.28253 17.119 2.40919L12.0857 5.52333C12.0096 5.57017 11.9436 5.63163 11.8914 5.70416C11.8393 5.77669 11.802 5.85884 11.7818 5.94587C11.7611 6.03275 11.7578 6.12288 11.7721 6.21105C11.7864 6.29922 11.8181 6.38368 11.8653 6.45953L13.0965 8.44945C13.2213 8.65114 13.4377 8.77156 13.6756 8.77156C13.802 8.77156 13.9254 8.73643 14.0328 8.67007L16.356 7.23263C16.5692 7.09951 16.6294 7.24339 16.6656 7.31089C17.1703 8.25314 17.4379 9.31135 17.4379 10.4156C17.4379 14.05 14.4811 17.0067 10.8467 17.0067C8.87895 17.0067 7.04408 16.1329 5.80532 14.6624C5.75284 14.6 5.64353 14.4723 5.87021 14.4723H5.94439C6.3506 14.4723 6.6811 14.1418 6.6811 13.7356V13.2483C6.6811 12.8421 6.3506 12.5116 5.94439 12.5116H2.89785C2.49163 12.5116 2.16113 12.8421 2.16113 13.2483V13.7356C2.16113 14.1418 2.49163 14.4723 2.89785 14.4723H3.75193C3.96444 14.4723 4.01816 14.601 4.05789 14.6646C4.70394 15.697 5.57707 16.5683 6.61079 17.2122C7.64451 17.8561 8.81155 18.2556 10.023 18.3802C10.1645 18.3948 10.4497 18.4006 10.4497 18.7973V20.3557C10.4497 20.3557 10.439 20.7611 9.98566 20.7611H7.26084C6.82335 20.7611 6.46746 21.117 6.46746 21.5545V23.0452C6.46746 23.4828 6.82335 23.8386 7.26084 23.8386H15.8321C16.2697 23.8386 16.6255 23.4828 16.6255 23.0452V21.5545C16.6255 21.117 16.2697 20.7611 15.8321 20.7611H13.0742C12.6917 20.7611 12.6907 20.4122 12.6907 20.4122V18.5706C12.6907 18.1739 13.0388 18.1202 13.2091 18.0674C16.475 17.0569 18.8542 14.0091 18.8542 10.4156C18.8542 9.06081 18.5229 7.763 17.8979 6.60982C17.8532 6.52725 17.7967 6.34403 17.9511 6.24554L19.0805 5.5468C19.2729 5.39515 19.4091 5.50707 19.469 5.54391C19.5764 5.60974 19.7001 5.64441 19.8261 5.64404C19.9524 5.64404 20.0758 5.60891 20.183 5.54255L20.8266 5.14432C21.1455 4.947 21.2445 4.52713 21.0472 4.20807Z" fill="#D3B474"/>
</svg>
