<svg width="22" height="22" viewBox="0 0 22 22" fill="none" xmlns="http://www.w3.org/2000/svg">
<path d="M19.0955 2.69418L18.0619 4.01606C20.3658 5.8184 21.8447 8.62152 21.8447 11.7692C21.8447 17.2043 17.4502 21.6036 12.0127 21.6106C6.57051 21.6176 2.15723 17.209 2.15723 11.7692C2.15723 7.51996 4.85254 3.89887 8.62832 2.52074C8.72676 2.48559 8.83691 2.53715 8.86973 2.63559L9.32676 3.96449C9.34264 4.01083 9.33976 4.06154 9.31874 4.10577C9.29771 4.15001 9.26021 4.18427 9.21426 4.20121C9.09707 4.2434 8.97988 4.29027 8.86504 4.33949C7.9041 4.74496 7.0416 5.32621 6.30098 6.06684C5.56494 6.80149 4.97764 7.6713 4.57129 8.62856C4.15176 9.61996 3.93848 10.677 3.93848 11.7645C3.93848 12.8543 4.15176 13.909 4.57129 14.9004C4.97593 15.8586 5.56344 16.7287 6.30098 17.4622C7.03554 18.1988 7.9064 18.7855 8.86504 19.1895C9.85879 19.609 10.9135 19.8223 12.0033 19.8223C13.0932 19.8223 14.1479 19.609 15.1416 19.1895C16.1025 18.784 16.965 18.2028 17.7057 17.4622C18.4463 16.7215 19.0275 15.859 19.4354 14.9004C19.8549 13.909 20.0682 12.852 20.0682 11.7645C20.0682 10.6747 19.8549 9.61996 19.4354 8.62856C19.0307 7.67037 18.4432 6.80024 17.7057 6.06684C17.4736 5.83481 17.2275 5.61684 16.9697 5.41528L15.8682 6.82621C15.8466 6.85413 15.8175 6.87538 15.7844 6.88753C15.7513 6.89968 15.7154 6.90223 15.6808 6.89488C15.6463 6.88754 15.6146 6.8706 15.5892 6.84601C15.5639 6.82142 15.5461 6.79019 15.5377 6.7559L14.5299 2.64027C14.5018 2.52309 14.5908 2.40824 14.7104 2.40824L18.9502 2.38949C19.1049 2.39184 19.1916 2.57231 19.0955 2.69418Z" fill="#00AE84"/>
</svg>
