<svg width="24" height="24" viewBox="0 0 24 24" fill="none" xmlns="http://www.w3.org/2000/svg">
<path d="M15.8398 22.2501H8.15984C7.39146 22.239 6.6556 21.9383 6.09939 21.408C5.54318 20.8778 5.20763 20.1571 5.15984 19.3901L4.24984 5.55012C4.24518 5.44978 4.26045 5.34951 4.29478 5.2551C4.32911 5.1607 4.38181 5.07403 4.44984 5.00012C4.51993 4.92353 4.60478 4.86189 4.6993 4.81893C4.79382 4.77597 4.89605 4.75256 4.99984 4.75012H18.9998C19.1027 4.7499 19.2045 4.77082 19.2989 4.8116C19.3933 4.85238 19.4783 4.91214 19.5487 4.98717C19.619 5.06219 19.6732 5.15089 19.7078 5.24773C19.7424 5.34458 19.7567 5.44751 19.7498 5.55012L18.8798 19.3901C18.8315 20.1639 18.4904 20.8903 17.9257 21.4216C17.361 21.9528 16.6152 22.2491 15.8398 22.2501ZM5.83984 6.25012L6.60984 19.3001C6.63528 19.6936 6.80975 20.0627 7.09772 20.332C7.38569 20.6014 7.76551 20.7509 8.15984 20.7501H15.8398C16.2335 20.7486 16.612 20.5983 16.8995 20.3294C17.1869 20.0604 17.3621 19.6928 17.3898 19.3001L18.1998 6.30012L5.83984 6.25012Z" fill="#FF6363"/>
<path d="M21 6.25012H3C2.80109 6.25012 2.61032 6.1711 2.46967 6.03045C2.32902 5.8898 2.25 5.69903 2.25 5.50012C2.25 5.30121 2.32902 5.11044 2.46967 4.96979C2.61032 4.82914 2.80109 4.75012 3 4.75012H21C21.1989 4.75012 21.3897 4.82914 21.5303 4.96979C21.671 5.11044 21.75 5.30121 21.75 5.50012C21.75 5.69903 21.671 5.8898 21.5303 6.03045C21.3897 6.1711 21.1989 6.25012 21 6.25012Z" fill="#FF6363"/>
<path d="M15 6.25012H9C8.80189 6.24753 8.61263 6.16768 8.47253 6.02759C8.33244 5.88749 8.25259 5.69823 8.25 5.50012V3.70012C8.26268 3.18694 8.47219 2.69828 8.83518 2.3353C9.19816 1.97231 9.68682 1.7628 10.2 1.75012H13.8C14.3217 1.76317 14.8177 1.97963 15.182 2.3533C15.5463 2.72696 15.7502 3.22824 15.75 3.75012V5.50012C15.7474 5.69823 15.6676 5.88749 15.5275 6.02759C15.3874 6.16768 15.1981 6.24753 15 6.25012ZM9.75 4.75012H14.25V3.75012C14.25 3.63077 14.2026 3.51632 14.1182 3.43192C14.0338 3.34753 13.9193 3.30012 13.8 3.30012H10.2C10.0807 3.30012 9.96619 3.34753 9.8818 3.43192C9.79741 3.51632 9.75 3.63077 9.75 3.75012V4.75012ZM15 18.2501C14.8019 18.2475 14.6126 18.1677 14.4725 18.0276C14.3324 17.8875 14.2526 17.6982 14.25 17.5001V9.50012C14.25 9.30121 14.329 9.11044 14.4697 8.96979C14.6103 8.82914 14.8011 8.75012 15 8.75012C15.1989 8.75012 15.3897 8.82914 15.5303 8.96979C15.671 9.11044 15.75 9.30121 15.75 9.50012V17.5001C15.7474 17.6982 15.6676 17.8875 15.5275 18.0276C15.3874 18.1677 15.1981 18.2475 15 18.2501ZM9 18.2501C8.80189 18.2475 8.61263 18.1677 8.47253 18.0276C8.33244 17.8875 8.25259 17.6982 8.25 17.5001V9.50012C8.25 9.30121 8.32902 9.11044 8.46967 8.96979C8.61032 8.82914 8.80109 8.75012 9 8.75012C9.19891 8.75012 9.38968 8.82914 9.53033 8.96979C9.67098 9.11044 9.75 9.30121 9.75 9.50012V17.5001C9.74741 17.6982 9.66756 17.8875 9.52747 18.0276C9.38737 18.1677 9.19811 18.2475 9 18.2501ZM12 18.2501C11.8019 18.2475 11.6126 18.1677 11.4725 18.0276C11.3324 17.8875 11.2526 17.6982 11.25 17.5001V9.50012C11.25 9.30121 11.329 9.11044 11.4697 8.96979C11.6103 8.82914 11.8011 8.75012 12 8.75012C12.1989 8.75012 12.3897 8.82914 12.5303 8.96979C12.671 9.11044 12.75 9.30121 12.75 9.50012V17.5001C12.7474 17.6982 12.6676 17.8875 12.5275 18.0276C12.3874 18.1677 12.1981 18.2475 12 18.2501Z" fill="#FF6363"/>
</svg>
