<svg width="20" height="19" viewBox="0 0 20 19" fill="none" xmlns="http://www.w3.org/2000/svg">
<path d="M15.2095 4.35923C14.9206 3.11568 14.2541 2.0117 13.3159 1.22261C12.3778 0.433509 11.2216 0.00452947 10.0312 0.00378515C8.84069 0.00304083 7.68411 0.430575 6.74507 1.2185C5.80604 2.00642 5.13838 3.10956 4.84812 4.35276C3.47897 4.49112 2.21194 5.19208 1.31021 6.31006C0.408478 7.42803 -0.0586347 8.87708 0.0058965 10.3562C0.0704277 11.8353 0.661643 13.2308 1.65674 14.2529C2.65183 15.2749 3.97431 15.8449 5.34948 15.8444H7.35491C7.5322 15.8444 7.70223 15.7686 7.82759 15.6336C7.95296 15.4986 8.02339 15.3155 8.02339 15.1246C8.02339 14.9337 7.95296 14.7506 7.82759 14.6156C7.70223 14.4806 7.5322 14.4048 7.35491 14.4048H5.34948C4.82277 14.4064 4.30091 14.2964 3.8137 14.0809C3.32649 13.8654 2.88348 13.5486 2.50995 13.1487C1.75557 12.3412 1.33003 11.244 1.32693 10.0986C1.32382 8.95316 1.74342 7.85332 2.49341 7.04103C3.24339 6.22873 4.26234 5.77051 5.32609 5.76717C5.49761 5.78107 5.66782 5.72588 5.80369 5.61229C5.93956 5.49871 6.0314 5.33483 6.06141 5.15246C6.19753 4.12462 6.67345 3.18418 7.40178 2.50383C8.13011 1.82348 9.06194 1.44891 10.0261 1.44891C10.9903 1.44891 11.9222 1.82348 12.6505 2.50383C13.3788 3.18418 13.8548 4.12462 13.9909 5.15246C14.0258 5.3285 14.1165 5.48602 14.2473 5.59813C14.3781 5.71024 14.541 5.76998 14.7081 5.76717C15.7719 5.76717 16.7921 6.22218 17.5443 7.03212C18.2964 7.84205 18.719 8.94056 18.719 10.086C18.719 11.2314 18.2964 12.3299 17.5443 13.1398C16.7921 13.9498 15.7719 14.4048 14.7081 14.4048H12.7027C12.5254 14.4048 12.3554 14.4806 12.23 14.6156C12.1047 14.7506 12.0342 14.9337 12.0342 15.1246C12.0342 15.3155 12.1047 15.4986 12.23 15.6336C12.3554 15.7686 12.5254 15.8444 12.7027 15.8444H14.7081C16.0733 15.829 17.3812 15.2521 18.364 14.2317C19.3468 13.2114 19.93 11.8251 19.9941 10.3567C20.0582 8.88828 19.5983 7.4491 18.7088 6.33403C17.8192 5.21896 16.5673 4.51243 15.2095 4.35923Z" fill="#96A0B5"/>
<path d="M12.8988 10.5948C13.0249 10.7259 13.1937 10.7984 13.369 10.7968C13.5443 10.7952 13.7119 10.7195 13.8359 10.586C13.9598 10.4525 14.0301 10.272 14.0316 10.0833C14.0332 9.89455 13.9658 9.71273 13.844 9.57697L10.5016 5.97796C10.3763 5.84302 10.2063 5.76721 10.029 5.76721C9.85175 5.76721 9.68176 5.84302 9.5564 5.97796L6.21402 9.57697C6.09225 9.71273 6.02487 9.89455 6.02639 10.0833C6.02792 10.272 6.09822 10.4525 6.22216 10.586C6.3461 10.7195 6.51376 10.7952 6.68903 10.7968C6.86431 10.7984 7.03317 10.7259 7.15924 10.5948L9.36053 8.22446V17.2839C9.36053 17.4748 9.43096 17.6579 9.55633 17.7929C9.68169 17.9279 9.85172 18.0037 10.029 18.0037C10.2063 18.0037 10.3763 17.9279 10.5017 17.7929C10.6271 17.6579 10.6975 17.4748 10.6975 17.2839V8.22446L12.8988 10.5948Z" fill="#96A0B5"/>
</svg>
