<svg width="24" height="15" viewBox="0 0 24 15" fill="none" xmlns="http://www.w3.org/2000/svg">
<path d="M22.2026 0.00012207H1.79742C0.804703 0.00012207 0 0.767762 0 1.71476V13.2854C0 14.2324 0.804703 15.0001 1.79742 15.0001H22.2026C23.1952 15.0001 24 14.2324 24 13.2854V1.71476C24 0.767762 23.1953 0.00012207 22.2026 0.00012207Z" fill="#F5F5F5"/>
<path d="M0.0988594 1.15397H23.9011C23.6575 0.482474 22.9893 0.00012207 22.2026 0.00012207H1.79742C1.01067 0.00012207 0.342469 0.482474 0.0988594 1.15397ZM0 4.61544H24V5.76925H0V4.61544ZM0 2.30765H24V3.46145H0V2.30765ZM0 7.68224C1.24295e-05 7.78693 0.0436144 7.88733 0.121217 7.96136C0.198819 8.03539 0.304066 8.07698 0.413813 8.077H24V6.92314H0V7.68224ZM0 11.5388H24V12.6927H0V11.5388ZM23.9011 13.8462H0.0988594C0.342469 14.5177 1.01072 15 1.79742 15H22.2026C22.9893 15 23.6575 14.5177 23.9011 13.8462ZM0 9.23103H24V10.3848H0V9.23103Z" fill="#FF4B55"/>
<path d="M0.413813 8.07692H10.7587C10.8684 8.07691 10.9736 8.03531 11.0513 7.96129C11.1289 7.88726 11.1725 7.78686 11.1725 7.68217V0.394753C11.1725 0.290058 11.1289 0.189651 11.0513 0.115621C10.9737 0.04159 10.8684 0 10.7587 0H1.79742C0.804703 4.4716e-05 0 0.767685 0 1.71468V7.68217C0 7.78686 0.043598 7.88727 0.121203 7.9613C0.198808 8.03533 0.304063 8.07692 0.413813 8.07692Z" fill="#41479B"/>
<path d="M1.16186 0.905948L1.25345 1.16798L1.543 1.17009C1.5805 1.1704 1.59602 1.21601 1.56588 1.23725L1.33295 1.40131L1.42033 1.66464C1.43167 1.69872 1.39094 1.72698 1.36042 1.70614L1.12488 1.54557L0.889329 1.70619C0.858814 1.72702 0.818173 1.69876 0.829423 1.66469L0.916798 1.40136L0.683876 1.23729C0.653736 1.21601 0.669251 1.1704 0.706751 1.17013L0.996298 1.16803L1.08789 0.905992C1.0997 0.872008 1.14995 0.872008 1.16186 0.905948ZM1.16186 2.27667L1.25345 2.53871L1.543 2.54081C1.5805 2.54112 1.59602 2.58669 1.56588 2.60797L1.33295 2.77208L1.42033 3.03541C1.43167 3.06949 1.39094 3.09775 1.36042 3.07691L1.12488 2.91634L0.889329 3.07695C0.858814 3.09775 0.818173 3.06953 0.829423 3.03546L0.916798 2.77213L0.683876 2.60802C0.653736 2.58673 0.669251 2.54117 0.706751 2.54085L0.996298 2.53875L1.08789 2.27672C1.0997 2.24278 1.14995 2.24278 1.16186 2.27667ZM1.16186 3.64744L1.25345 3.90948L1.543 3.91158C1.5805 3.91189 1.59602 3.95746 1.56588 3.97874L1.33295 4.14285L1.42033 4.40618C1.43167 4.44026 1.39094 4.46852 1.36042 4.44768L1.12488 4.2871L0.889329 4.44772C0.858814 4.46852 0.818173 4.44035 0.829423 4.40623L0.916798 4.1429L0.683876 3.97879C0.653736 3.9575 0.669251 3.91194 0.706751 3.91162L0.996298 3.90952L1.08789 3.64749C1.0997 3.6135 1.14995 3.6135 1.16186 3.64744ZM1.16186 5.01817L1.25345 5.2802L1.543 5.2823C1.5805 5.28262 1.59602 5.32823 1.56588 5.34947L1.33295 5.51358L1.42033 5.77691C1.43167 5.81098 1.39094 5.83924 1.36042 5.8184L1.12488 5.65783L0.889329 5.81845C0.858814 5.83924 0.818173 5.81103 0.829423 5.77695L0.916798 5.51362L0.683876 5.34951C0.653736 5.32832 0.669251 5.28266 0.706751 5.28235L0.996298 5.28025L1.08789 5.01821C1.0997 4.98423 1.14995 4.98423 1.16186 5.01817ZM1.16186 6.38889L1.25345 6.65093L1.543 6.65303C1.5805 6.65334 1.59602 6.69891 1.56588 6.72019L1.33295 6.8843L1.42033 7.14763C1.43167 7.18171 1.39094 7.20997 1.36042 7.18913L1.12488 7.02855L0.889329 7.18917C0.858814 7.20997 0.818173 7.18175 0.829423 7.14768L0.916798 6.88434L0.683876 6.72024C0.653736 6.69895 0.669251 6.65339 0.706751 6.65307L0.996298 6.65097L1.08789 6.38894C1.0997 6.355 1.14995 6.355 1.16186 6.38889ZM2.27716 1.57798L2.36875 1.84002L2.6583 1.84212C2.6958 1.84244 2.71131 1.88805 2.68117 1.90929L2.44825 2.07339L2.53563 2.33673C2.54697 2.3708 2.50624 2.39906 2.47572 2.37822L2.24017 2.2176L2.00463 2.37822C1.97411 2.39902 1.93347 2.3708 1.94472 2.33673L2.03209 2.07339L1.79917 1.90929C1.76903 1.888 1.78455 1.84244 1.82205 1.84212L2.11159 1.84002L2.20319 1.57798C2.215 1.54409 2.2653 1.54409 2.27716 1.57798ZM2.27716 2.94875L2.36875 3.21079L2.6583 3.21289C2.6958 3.2132 2.71131 3.25882 2.68117 3.28006L2.44825 3.44416L2.53563 3.7075C2.54697 3.74157 2.50624 3.76983 2.47572 3.74899L2.24017 3.58837L2.00463 3.74899C1.97411 3.76979 1.93347 3.74161 1.94472 3.7075L2.03209 3.44416L1.79917 3.28006C1.76903 3.25886 1.78455 3.2132 1.82205 3.21289L2.11159 3.21079L2.20319 2.94875C2.215 2.91481 2.2653 2.91481 2.27716 2.94875ZM2.27716 4.31948L2.36875 4.58151L2.6583 4.58362C2.6958 4.58393 2.71131 4.62949 2.68117 4.65078L2.44825 4.81489L2.53563 5.07822C2.54697 5.11229 2.50624 5.14055 2.47572 5.11972L2.24017 4.9591L2.00463 5.11972C1.97411 5.14051 1.93347 5.11229 1.94472 5.07822L2.03209 4.81489L1.79917 4.65078C1.76903 4.62949 1.78455 4.58393 1.82205 4.58362L2.11159 4.58151L2.20319 4.31948C2.215 4.28554 2.2653 4.28554 2.27716 4.31948ZM2.27716 5.6902L2.36875 5.95224L2.6583 5.95434C2.6958 5.95465 2.71131 6.00022 2.68117 6.0215L2.44825 6.18561L2.53563 6.44894C2.54697 6.48302 2.50624 6.51128 2.47572 6.49044L2.24017 6.32982L2.00463 6.49044C1.97411 6.51128 1.93347 6.48302 1.94472 6.44894L2.03209 6.18561L1.79917 6.0215C1.76903 6.00022 1.78455 5.95465 1.82205 5.95434L2.11159 5.95224L2.20319 5.6902C2.215 5.65631 2.2653 5.65631 2.27716 5.6902ZM3.39245 0.905948L3.48405 1.16798L3.77359 1.17009C3.81109 1.1704 3.82661 1.21601 3.79647 1.23725L3.56355 1.40131L3.65092 1.66464C3.66227 1.69872 3.62153 1.72698 3.59102 1.70614L3.35547 1.54552L3.11992 1.70614C3.08941 1.72698 3.04877 1.69872 3.06002 1.66464L3.14739 1.40131L2.91447 1.23725C2.88433 1.21596 2.89985 1.17035 2.93735 1.17009L3.22689 1.16798L3.31849 0.905948C3.3303 0.872008 3.38059 0.872008 3.39245 0.905948ZM3.39245 2.27667L3.48405 2.53871L3.77359 2.54081C3.81109 2.54112 3.82661 2.58669 3.79647 2.60797L3.56355 2.77208L3.65092 3.03541C3.66227 3.06949 3.62153 3.09775 3.59102 3.07691L3.35547 2.91629L3.11992 3.07691C3.08941 3.0977 3.04877 3.06949 3.06002 3.03541L3.14739 2.77208L2.91447 2.60797C2.88433 2.58669 2.89985 2.54112 2.93735 2.54081L3.22689 2.53871L3.31849 2.27667C3.3303 2.24278 3.38059 2.24278 3.39245 2.27667ZM3.39245 3.64744L3.48405 3.90948L3.77359 3.91158C3.81109 3.91189 3.82661 3.95746 3.79647 3.97874L3.56355 4.14285L3.65092 4.40618C3.66227 4.44026 3.62153 4.46852 3.59102 4.44768L3.35547 4.28706L3.11992 4.44768C3.08941 4.46847 3.04877 4.4403 3.06002 4.40618L3.14739 4.14285L2.91447 3.97874C2.88433 3.95746 2.89985 3.91189 2.93735 3.91158L3.22689 3.90948L3.31849 3.64744C3.3303 3.6135 3.38059 3.6135 3.39245 3.64744ZM3.39245 5.01817L3.48405 5.2802L3.77359 5.2823C3.81109 5.28262 3.82661 5.32823 3.79647 5.34947L3.56355 5.51358L3.65092 5.77691C3.66227 5.81098 3.62153 5.83924 3.59102 5.8184L3.35547 5.65778L3.11992 5.8184C3.08941 5.8392 3.04877 5.81098 3.06002 5.77691L3.14739 5.51358L2.91447 5.34947C2.88433 5.32827 2.89985 5.28262 2.93735 5.2823L3.22689 5.2802L3.31849 5.01817C3.3303 4.98423 3.38059 4.98423 3.39245 5.01817ZM3.39245 6.38889L3.48405 6.65093L3.77359 6.65303C3.81109 6.65334 3.82661 6.69891 3.79647 6.72019L3.56355 6.8843L3.65092 7.14763C3.66227 7.18171 3.62153 7.20997 3.59102 7.18913L3.35547 7.02851L3.11992 7.18913C3.08941 7.20992 3.04877 7.18171 3.06002 7.14763L3.14739 6.8843L2.91447 6.72019C2.88433 6.69891 2.89985 6.65334 2.93735 6.65303L3.22689 6.65093L3.31849 6.38889C3.3303 6.355 3.38059 6.355 3.39245 6.38889ZM4.5078 1.57798L4.59939 1.84002L4.88894 1.84212C4.92644 1.84244 4.94195 1.88805 4.91181 1.90929L4.67889 2.07339L4.76627 2.33673C4.77761 2.3708 4.73688 2.39906 4.70636 2.37822L4.47081 2.2176L4.23527 2.37822C4.20475 2.39902 4.16411 2.3708 4.17536 2.33673L4.26274 2.07339L4.02981 1.90929C3.99967 1.888 4.01519 1.84244 4.05269 1.84212L4.34224 1.84002L4.43383 1.57798C4.4456 1.54409 4.49594 1.54409 4.5078 1.57798ZM4.5078 2.94875L4.59939 3.21079L4.88894 3.21289C4.92644 3.2132 4.94195 3.25882 4.91181 3.28006L4.67889 3.44416L4.76627 3.7075C4.77761 3.74157 4.73688 3.76983 4.70636 3.74899L4.47081 3.58837L4.23527 3.74899C4.20475 3.76979 4.16411 3.74161 4.17536 3.7075L4.26274 3.44416L4.02981 3.28006C3.99967 3.25886 4.01519 3.2132 4.05269 3.21289L4.34224 3.21079L4.43383 2.94875C4.4456 2.91481 4.49594 2.91481 4.5078 2.94875ZM4.5078 4.31948L4.59939 4.58151L4.88894 4.58362C4.92644 4.58393 4.94195 4.62949 4.91181 4.65078L4.67889 4.81489L4.76627 5.07822C4.77761 5.11229 4.73688 5.14055 4.70636 5.11972L4.47081 4.9591L4.23527 5.11972C4.20475 5.14051 4.16411 5.11229 4.17536 5.07822L4.26274 4.81489L4.02981 4.65078C3.99967 4.62949 4.01519 4.58393 4.05269 4.58362L4.34224 4.58151L4.43383 4.31948C4.4456 4.28554 4.49594 4.28554 4.5078 4.31948ZM4.5078 5.6902L4.59939 5.95224L4.88894 5.95434C4.92644 5.95465 4.94195 6.00022 4.91181 6.0215L4.67889 6.18561L4.76627 6.44894C4.77761 6.48302 4.73688 6.51128 4.70636 6.49044L4.47081 6.32982L4.23527 6.49044C4.20475 6.51128 4.16411 6.48302 4.17536 6.44894L4.26274 6.18561L4.02981 6.0215C3.99967 6.00022 4.01519 5.95465 4.05269 5.95434L4.34224 5.95224L4.43383 5.6902C4.4456 5.65631 4.49594 5.65631 4.5078 5.6902ZM5.6231 0.905948L5.71469 1.16798L6.00424 1.17009C6.04174 1.1704 6.05725 1.21601 6.02711 1.23725L5.79419 1.40131L5.88156 1.66464C5.89291 1.69872 5.85217 1.72698 5.82166 1.70614L5.58606 1.54557L5.35052 1.70619C5.32 1.72702 5.27936 1.69876 5.29061 1.66469L5.37799 1.40136L5.14506 1.23729C5.11492 1.21601 5.13044 1.1704 5.16794 1.17013L5.45749 1.16803L5.54908 0.905992C5.56094 0.872008 5.61124 0.872008 5.6231 0.905948ZM5.6231 2.27667L5.71469 2.53871L6.00424 2.54081C6.04174 2.54112 6.05725 2.58669 6.02711 2.60797L5.79419 2.77208L5.88156 3.03541C5.89291 3.06949 5.85217 3.09775 5.82166 3.07691L5.58606 2.91629L5.35052 3.07691C5.32 3.0977 5.27936 3.06949 5.29061 3.03541L5.37799 2.77208L5.14506 2.60797C5.11492 2.58669 5.13044 2.54112 5.16794 2.54081L5.45749 2.53871L5.54908 2.27667C5.56094 2.24278 5.61124 2.24278 5.6231 2.27667ZM5.6231 3.64744L5.71469 3.90948L6.00424 3.91158C6.04174 3.91189 6.05725 3.95746 6.02711 3.97874L5.79419 4.14285L5.88156 4.40618C5.89291 4.44026 5.85217 4.46852 5.82166 4.44768L5.58606 4.28702L5.35052 4.44763C5.32 4.46843 5.27936 4.44021 5.29061 4.40614L5.37799 4.14281L5.14506 3.9787C5.11492 3.95741 5.13044 3.91185 5.16794 3.91153L5.45749 3.90943L5.54908 3.6474C5.56094 3.6135 5.61124 3.6135 5.6231 3.64744ZM5.6231 5.01817L5.71469 5.2802L6.00424 5.2823C6.04174 5.28262 6.05725 5.32823 6.02711 5.34947L5.79419 5.51358L5.88156 5.77691C5.89291 5.81098 5.85217 5.83924 5.82166 5.8184L5.58606 5.65778L5.35052 5.8184C5.32 5.8392 5.27936 5.81098 5.29061 5.77691L5.37799 5.51358L5.14506 5.34947C5.11492 5.32827 5.13044 5.28262 5.16794 5.2823L5.45749 5.2802L5.54908 5.01817C5.56094 4.98423 5.61124 4.98423 5.6231 5.01817ZM5.6231 6.38889L5.71469 6.65093L6.00424 6.65303C6.04174 6.65334 6.05725 6.69891 6.02711 6.72019L5.79419 6.8843L5.88156 7.14763C5.89291 7.18171 5.85217 7.20997 5.82166 7.18913L5.58606 7.02851L5.35052 7.18913C5.32 7.20992 5.27936 7.18171 5.29061 7.14763L5.37799 6.8843L5.14506 6.72019C5.11492 6.69891 5.13044 6.65334 5.16794 6.65303L5.45749 6.65093L5.54908 6.38889C5.56094 6.355 5.61124 6.355 5.6231 6.38889ZM6.73839 1.57798L6.82999 1.84002L7.11953 1.84212C7.15703 1.84244 7.17255 1.88805 7.14241 1.90929L6.90949 2.07339L6.99686 2.33673C7.0082 2.3708 6.96747 2.39906 6.93695 2.37822L6.70141 2.2176L6.46586 2.37822C6.43534 2.39902 6.3947 2.3708 6.40595 2.33673L6.49333 2.07339L6.26041 1.90929C6.23027 1.888 6.24578 1.84244 6.28328 1.84212L6.57283 1.84002L6.66442 1.57798C6.67628 1.54409 6.72653 1.54409 6.73839 1.57798ZM6.73839 2.94875L6.82999 3.21079L7.11953 3.21289C7.15703 3.2132 7.17255 3.25882 7.14241 3.28006L6.90949 3.44416L6.99686 3.7075C7.0082 3.74157 6.96747 3.76983 6.93695 3.74899L6.70141 3.58837L6.46586 3.74899C6.43534 3.76979 6.3947 3.74161 6.40595 3.7075L6.49333 3.44416L6.26041 3.28006C6.23027 3.25886 6.24578 3.2132 6.28328 3.21289L6.57283 3.21079L6.66442 2.94875C6.67628 2.91481 6.72653 2.91481 6.73839 2.94875ZM6.73839 4.31948L6.82999 4.58151L7.11953 4.58362C7.15703 4.58393 7.17255 4.62949 7.14241 4.65078L6.90949 4.81489L6.99686 5.07822C7.0082 5.11229 6.96747 5.14055 6.93695 5.11972L6.70141 4.9591L6.46586 5.11972C6.43534 5.14051 6.3947 5.11229 6.40595 5.07822L6.49333 4.81489L6.26041 4.65078C6.23027 4.62949 6.24578 4.58393 6.28328 4.58362L6.57283 4.58151L6.66442 4.31948C6.67628 4.28554 6.72653 4.28554 6.73839 4.31948ZM6.73839 5.6902L6.82999 5.95224L7.11953 5.95434C7.15703 5.95465 7.17255 6.00022 7.14241 6.0215L6.90949 6.18561L6.99686 6.44894C7.0082 6.48302 6.96747 6.51128 6.93695 6.49044L6.70141 6.32982L6.46586 6.49044C6.43534 6.51128 6.3947 6.48302 6.40595 6.44894L6.49333 6.18561L6.26041 6.0215C6.23027 6.00022 6.24578 5.95465 6.28328 5.95434L6.57283 5.95224L6.66442 5.6902C6.67628 5.65631 6.72653 5.65631 6.73839 5.6902ZM7.85374 0.905948L7.94533 1.16798L8.23488 1.17009C8.27238 1.1704 8.28789 1.21601 8.25775 1.23725L8.02483 1.40131L8.1122 1.66464C8.12355 1.69872 8.08281 1.72698 8.0523 1.70614L7.81675 1.54552L7.5812 1.70614C7.55069 1.72698 7.51005 1.69872 7.5213 1.66464L7.60867 1.40131L7.37575 1.23725C7.34561 1.21596 7.36113 1.17035 7.39863 1.17009L7.68817 1.16798L7.77977 0.905948C7.79153 0.872008 7.84188 0.872008 7.85374 0.905948ZM7.85374 2.27667L7.94533 2.53871L8.23488 2.54081C8.27238 2.54112 8.28789 2.58669 8.25775 2.60797L8.02483 2.77208L8.1122 3.03541C8.12355 3.06949 8.08281 3.09775 8.0523 3.07691L7.81675 2.91629L7.5812 3.07691C7.55069 3.0977 7.51005 3.06949 7.5213 3.03541L7.60867 2.77208L7.37575 2.60797C7.34561 2.58669 7.36113 2.54112 7.39863 2.54081L7.68817 2.53871L7.77977 2.27667C7.79153 2.24278 7.84188 2.24278 7.85374 2.27667ZM7.85374 3.64744L7.94533 3.90948L8.23488 3.91158C8.27238 3.91189 8.28789 3.95746 8.25775 3.97874L8.02483 4.14285L8.1122 4.40618C8.12355 4.44026 8.08281 4.46852 8.0523 4.44768L7.81675 4.28706L7.5812 4.44768C7.55069 4.46847 7.51005 4.4403 7.5213 4.40618L7.60867 4.14285L7.37575 3.97874C7.34561 3.95746 7.36113 3.91189 7.39863 3.91158L7.68817 3.90948L7.77977 3.64744C7.79153 3.6135 7.84188 3.6135 7.85374 3.64744ZM7.85374 5.01817L7.94533 5.2802L8.23488 5.2823C8.27238 5.28262 8.28789 5.32823 8.25775 5.34947L8.02483 5.51358L8.1122 5.77691C8.12355 5.81098 8.08281 5.83924 8.0523 5.8184L7.81675 5.65778L7.5812 5.8184C7.55069 5.8392 7.51005 5.81098 7.5213 5.77691L7.60867 5.51358L7.37575 5.34947C7.34561 5.32827 7.36113 5.28262 7.39863 5.2823L7.68817 5.2802L7.77977 5.01817C7.79153 4.98423 7.84188 4.98423 7.85374 5.01817ZM7.85374 6.38889L7.94533 6.65093L8.23488 6.65303C8.27238 6.65334 8.28789 6.69891 8.25775 6.72019L8.02483 6.8843L8.1122 7.14763C8.12355 7.18171 8.08281 7.20997 8.0523 7.18913L7.81675 7.02851L7.5812 7.18913C7.55069 7.20992 7.51005 7.18171 7.5213 7.14763L7.60867 6.8843L7.37575 6.72019C7.34561 6.69891 7.36113 6.65334 7.39863 6.65303L7.68817 6.65093L7.77977 6.38889C7.79153 6.355 7.84188 6.355 7.85374 6.38889ZM8.96903 1.57798L9.06063 1.84002L9.35017 1.84212C9.38767 1.84244 9.40319 1.88805 9.37305 1.90929L9.14013 2.07339L9.2275 2.33673C9.23884 2.3708 9.19811 2.39906 9.16759 2.37822L8.93205 2.2176L8.6965 2.37822C8.66599 2.39902 8.62535 2.3708 8.63659 2.33673L8.72397 2.07339L8.49105 1.90929C8.46091 1.888 8.47642 1.84244 8.51392 1.84212L8.80347 1.84002L8.89506 1.57798C8.90688 1.54409 8.95717 1.54409 8.96903 1.57798ZM8.96903 2.94875L9.06063 3.21079L9.35017 3.21289C9.38767 3.2132 9.40319 3.25882 9.37305 3.28006L9.14013 3.44416L9.2275 3.7075C9.23884 3.74157 9.19811 3.76983 9.16759 3.74899L8.93205 3.58837L8.6965 3.74899C8.66599 3.76979 8.62535 3.74161 8.63659 3.7075L8.72397 3.44416L8.49105 3.28006C8.46091 3.25886 8.47642 3.2132 8.51392 3.21289L8.80347 3.21079L8.89506 2.94875C8.90688 2.91481 8.95717 2.91481 8.96903 2.94875ZM8.96903 4.31948L9.06063 4.58151L9.35017 4.58362C9.38767 4.58393 9.40319 4.62949 9.37305 4.65078L9.14013 4.81489L9.2275 5.07822C9.23884 5.11229 9.19811 5.14055 9.16759 5.11972L8.93205 4.9591L8.6965 5.11972C8.66599 5.14051 8.62535 5.11229 8.63659 5.07822L8.72397 4.81489L8.49105 4.65078C8.46091 4.62949 8.47642 4.58393 8.51392 4.58362L8.80347 4.58151L8.89506 4.31948C8.90688 4.28554 8.95717 4.28554 8.96903 4.31948ZM8.96903 5.6902L9.06063 5.95224L9.35017 5.95434C9.38767 5.95465 9.40319 6.00022 9.37305 6.0215L9.14013 6.18561L9.2275 6.44894C9.23884 6.48302 9.19811 6.51128 9.16759 6.49044L8.93205 6.32982L8.6965 6.49044C8.66599 6.51128 8.62535 6.48302 8.63659 6.44894L8.72397 6.18561L8.49105 6.0215C8.46091 6.00022 8.47642 5.95465 8.51392 5.95434L8.80347 5.95224L8.89506 5.6902C8.90688 5.65631 8.95717 5.65631 8.96903 5.6902ZM10.0844 0.905948L10.176 1.16798L10.4655 1.17009C10.503 1.1704 10.5185 1.21601 10.4884 1.23725L10.2555 1.40131L10.3428 1.66464C10.3542 1.69872 10.3135 1.72698 10.2829 1.70614L10.0474 1.54552L9.81185 1.70614C9.78133 1.72698 9.74069 1.69872 9.75194 1.66464L9.83931 1.40131L9.60639 1.23725C9.57625 1.21596 9.59177 1.17035 9.62927 1.17009L9.91881 1.16798L10.0104 0.905948C10.0222 0.872008 10.0725 0.872008 10.0844 0.905948ZM10.0844 2.27667L10.176 2.53871L10.4655 2.54081C10.503 2.54112 10.5185 2.58669 10.4884 2.60797L10.2555 2.77208L10.3428 3.03541C10.3542 3.06949 10.3135 3.09775 10.2829 3.07691L10.0474 2.91629L9.81185 3.07691C9.78133 3.0977 9.74069 3.06949 9.75194 3.03541L9.83931 2.77208L9.60639 2.60797C9.57625 2.58669 9.59177 2.54112 9.62927 2.54081L9.91881 2.53871L10.0104 2.27667C10.0222 2.24278 10.0725 2.24278 10.0844 2.27667ZM10.0844 3.64744L10.176 3.90948L10.4655 3.91158C10.503 3.91189 10.5185 3.95746 10.4884 3.97874L10.2555 4.14285L10.3428 4.40618C10.3542 4.44026 10.3135 4.46852 10.2829 4.44768L10.0474 4.28706L9.81185 4.44768C9.78133 4.46847 9.74069 4.4403 9.75194 4.40618L9.83931 4.14285L9.60639 3.97874C9.57625 3.95746 9.59177 3.91189 9.62927 3.91158L9.91881 3.90948L10.0104 3.64744C10.0222 3.6135 10.0725 3.6135 10.0844 3.64744ZM10.0844 5.01817L10.176 5.2802L10.4655 5.2823C10.503 5.28262 10.5185 5.32823 10.4884 5.34947L10.2555 5.51358L10.3428 5.77691C10.3542 5.81098 10.3135 5.83924 10.2829 5.8184L10.0474 5.65778L9.81185 5.8184C9.78133 5.8392 9.74069 5.81098 9.75194 5.77691L9.83931 5.51358L9.60639 5.34947C9.57625 5.32827 9.59177 5.28262 9.62927 5.2823L9.91881 5.2802L10.0104 5.01817C10.0222 4.98423 10.0725 4.98423 10.0844 5.01817ZM10.0844 6.38889L10.176 6.65093L10.4655 6.65303C10.503 6.65334 10.5185 6.69891 10.4884 6.72019L10.2555 6.8843L10.3428 7.14763C10.3542 7.18171 10.3135 7.20997 10.2829 7.18913L10.0474 7.02851L9.81185 7.18913C9.78133 7.20992 9.74069 7.18171 9.75194 7.14763L9.83931 6.8843L9.60639 6.72019C9.57625 6.69891 9.59177 6.65334 9.62927 6.65303L9.91881 6.65093L10.0104 6.38889C10.0222 6.355 10.0725 6.355 10.0844 6.38889Z" fill="#F5F5F5"/>
</svg>
