<svg width="77" height="77" viewBox="0 0 77 77" fill="none" xmlns="http://www.w3.org/2000/svg">
<g clip-path="url(#clip0_159_10723)">
<path fill-rule="evenodd" clip-rule="evenodd" d="M77 0H0V77H77V0ZM21.9419 6.87908L21.6884 7.0922L21.2147 7.55825C21.2035 7.67844 21.1522 7.7917 21.0688 7.88056C20.9854 7.96943 20.8745 8.02899 20.7531 8.05006L20.5378 8.28425C20.5109 8.51679 20.4328 8.74086 20.3089 8.94099C20.185 9.14113 20.0183 9.31258 19.8202 9.44352L19.581 9.91191C19.3633 10.6403 19.0427 11.3171 18.3849 11.7855C18.3534 11.9274 18.2897 12.0607 18.1987 12.1754C18.1076 12.2901 17.9914 12.3833 17.8587 12.4482L17.6195 12.6824L17.1889 12.9541L16.9114 13.1508C16.7492 13.3654 16.5147 13.3834 16.2834 13.4011C16.2622 13.4027 16.2411 13.4043 16.2201 13.4061C15.2083 14.0178 14.0773 14.2889 12.9462 14.56C12.6092 14.6407 12.2722 14.7215 11.9383 14.8113C11.76 15.038 11.506 15.1963 11.2207 15.2586L9.80942 16.6638L9.57021 17.1321L9.33101 17.6005C9.26822 17.7762 9.20947 17.9518 9.15072 18.1274C9.13113 18.186 9.11154 18.2446 9.0918 18.3031C9.0622 18.713 9.03738 19.1232 9.01256 19.5333C8.95314 20.5154 8.89374 21.4971 8.76887 22.4718L8.76343 22.5145C8.6456 23.4389 8.52076 24.4183 7.63265 25.0479C7.60735 25.2255 7.5236 25.3902 7.3941 25.517C7.2646 25.6438 7.09642 25.7258 6.91503 25.7505L6.67583 25.9847C6.65785 26.1046 6.60011 26.2154 6.51151 26.3001C6.4229 26.3847 6.30834 26.4385 6.18546 26.4531C5.46624 27.1588 4.74863 27.8614 4.03261 28.5609L3.83407 28.8138C3.8107 28.8783 3.78724 28.9428 3.76379 29.0072C3.26645 30.3739 2.77588 31.7219 3.31499 33.2003C3.6064 34.1226 3.94897 35.0288 4.34118 35.9146C5.41521 38.1067 4.98943 40.1161 3.7934 42.088C3.80239 42.2703 3.76644 42.4521 3.68859 42.618C3.61073 42.7839 3.49326 42.9291 3.34609 43.0412C2.95719 44.5618 3.03541 46.1611 3.57094 47.6384C4.07084 48.0967 4.48245 48.6393 4.7861 49.2403C4.92241 49.3376 5.0619 49.4312 5.20128 49.5247C5.76633 49.9036 6.3295 50.2813 6.67104 50.9031L6.91025 51.1256C7.17614 51.1977 7.41241 51.3493 7.58608 51.5593C7.75974 51.7692 7.86216 52.0269 7.87903 52.2966C8.27677 52.4251 8.30357 52.7241 8.33043 53.0238C8.33733 53.1008 8.34424 53.1779 8.35744 53.2521C8.62618 53.5855 8.77125 53.9984 8.76887 54.4231C8.74495 56.0765 9.02004 57.6994 9.30709 59.3201C9.45242 59.4278 9.57095 59.5664 9.6538 59.7254C9.73666 59.8844 9.78168 60.0597 9.7855 60.2381C9.90374 60.2659 10.0102 60.3291 10.0899 60.4189C10.1697 60.5088 10.2188 60.6208 10.2304 60.7393C10.3392 60.8351 10.4615 60.9163 10.5839 60.9976C10.8357 61.1648 11.0879 61.3322 11.2231 61.6269C12.1607 61.9761 13.1124 62.2805 14.0658 62.5854C14.5257 62.7325 14.9859 62.8797 15.4451 63.0321C15.4846 63.0448 15.5244 63.0576 15.5643 63.0704C16.5785 63.396 17.6854 63.7515 18.1457 64.8939C18.4033 65.0527 18.6213 65.2659 18.7835 65.518C18.9458 65.7701 19.0483 66.0546 19.0834 66.3506C19.6769 66.8422 19.9784 67.5042 20.2803 68.1668C20.358 68.3375 20.4358 68.5083 20.5186 68.6762C21.1236 68.9896 21.5924 69.4627 22.0607 69.9354C22.2609 70.1374 22.4609 70.3393 22.6715 70.5287C24.5851 71.0345 26.4653 70.7394 28.3789 70.4373C30.1227 70.161 31.8474 70.3038 33.163 71.709C33.2008 71.7267 33.2386 71.7443 33.2764 71.7619C34.0301 72.1131 34.776 72.4607 35.3159 73.1142C35.5117 73.1448 35.704 73.1942 35.89 73.2617C37.9687 74.2852 39.9397 74.1048 41.8271 72.7933C42.2052 72.5304 42.5942 72.2813 42.9832 72.0321C43.256 71.8573 43.5289 71.6825 43.7981 71.5029C45.164 70.5942 46.6494 70.161 48.3047 70.4162C48.605 70.4622 48.9038 70.5186 49.2025 70.575C49.6798 70.6651 50.1569 70.7551 50.6394 70.8027C52.376 70.9783 54.0529 70.8729 55.4235 69.6106C56.182 68.8668 56.7956 67.9938 57.2343 67.0345C58.2413 65.0298 59.6455 63.4981 61.9586 62.9384C62.7695 62.744 63.5613 62.4934 64.3507 62.2358C65.0106 62.0264 65.6198 61.6872 66.141 61.239C66.6622 60.7908 67.0843 60.243 67.3814 59.6292C67.9701 58.4965 68.021 57.2918 68.0714 56.0996C68.0859 55.756 68.1004 55.4136 68.1277 55.0741C68.2928 53.0952 69.1754 51.6666 70.6848 50.4511C73.5194 48.1536 74.9546 45.9733 73.0075 42.0201C71.7876 39.5399 71.7421 37.2003 73.0936 34.8069C73.2454 34.4912 73.3748 34.1656 73.4811 33.8326C74.0791 32.3033 74.127 30.7998 73.2419 29.3525C72.9999 28.963 72.7522 28.5803 72.5043 28.1973C72.3944 28.0276 72.2845 27.8578 72.1751 27.6873L71.9359 27.4531C69.9409 26.2681 68.3406 24.7786 68.209 22.3289C68.1086 20.3992 67.9579 18.4952 67.1661 16.6942L65.7476 15.3078C65.0208 14.9509 64.2452 14.7219 63.4699 14.493C62.5305 14.2157 61.5916 13.9385 60.741 13.4342C60.7029 13.4277 60.6641 13.4222 60.6253 13.4166C60.4133 13.3864 60.198 13.3558 60.0545 13.1579L59.7842 12.9658C59.5561 12.899 59.348 12.7788 59.1779 12.6156C59.0079 12.4523 58.881 12.251 58.8083 12.029C58.0019 11.4138 57.6416 10.5319 57.2805 9.64817C57.2485 9.56975 57.2164 9.49133 57.1841 9.41307L55.2704 7.08986C54.8961 7.02674 54.6483 6.78131 54.4014 6.53668C54.3643 6.49993 54.3272 6.46318 54.2897 6.42708C52.5283 5.89047 50.7852 6.14751 49.021 6.40768C48.8757 6.42911 48.7302 6.45055 48.5846 6.47158C48.5531 6.47611 48.5215 6.48066 48.49 6.48521C47.2811 6.65957 46.0502 6.83711 44.9965 5.94698L44.5181 5.71279C44.2072 5.66595 43.8986 5.60974 43.8005 5.2444C43.5091 5.18346 43.2524 5.01593 43.0829 4.77601C42.7919 4.71419 42.5355 4.54686 42.3653 4.30762C42.0591 4.25844 41.7481 4.20457 41.6477 3.83923C39.7197 2.9727 37.763 2.78535 35.7632 3.60503L35.3039 3.83923C35.1987 4.2116 34.8901 4.26312 34.5744 4.30762L34.3136 4.50902L33.8759 4.78303C33.7777 5.1286 33.4785 5.18792 33.1792 5.24726L33.1583 5.25142L32.9023 5.45986L32.4383 5.71513C31.2948 6.73388 29.8955 6.71514 28.5201 6.49968C28.445 6.48809 28.3699 6.47645 28.2949 6.46481C26.4144 6.17317 24.548 5.8837 22.6595 6.41069C22.4849 6.64546 22.2304 6.81155 21.9419 6.87908Z" fill="#1B1D28"/>
<mask id="mask0_159_10723" style="mask-type:luminance" maskUnits="userSpaceOnUse" x="2" y="2" width="73" height="73">
<path d="M21.6884 7.09203L21.942 6.87892C22.2305 6.81138 22.485 6.6453 22.6596 6.41053C24.6235 5.86251 26.5634 6.19741 28.5201 6.49952C29.8956 6.71498 31.2949 6.73372 32.4383 5.71497L32.9024 5.45969L33.1583 5.25126C33.4645 5.19037 33.7755 5.1365 33.876 4.78287L34.3137 4.50886L34.5744 4.30745C34.8902 4.26296 35.1988 4.21143 35.304 3.83906L35.7633 3.60487C37.763 2.78518 39.7197 2.97254 41.6477 3.83906C41.7482 4.20441 42.0592 4.25827 42.3654 4.30745C42.5356 4.54669 42.7919 4.71402 43.083 4.77584C43.2525 5.01577 43.5092 5.18329 43.8006 5.24423C43.8987 5.60958 44.2072 5.66579 44.5182 5.71262L44.9966 5.94682C46.0778 6.86018 47.3456 6.64941 48.5847 6.47142C50.4983 6.19507 52.3833 5.84612 54.2897 6.42692C54.5768 6.70327 54.8399 7.01709 55.2705 7.08969L57.1841 9.41291C57.5812 10.3731 57.9305 11.3591 58.8083 12.0289C58.8811 12.2509 59.008 12.4522 59.178 12.6154C59.3481 12.7786 59.5562 12.8988 59.7843 12.9657L60.0546 13.1577C60.2244 13.3919 60.4947 13.3919 60.7411 13.4341C62.2936 14.3544 64.1402 14.5184 65.7477 15.3076L67.1662 16.6941C67.9579 18.495 68.1086 20.399 68.2091 22.3288C68.3407 24.7785 69.941 26.268 71.9359 27.453L72.1751 27.6872C72.5316 28.2422 72.8928 28.7902 73.242 29.3523C74.1271 30.7996 74.0792 32.3032 73.4812 33.8325C73.3749 34.1655 73.2454 34.491 73.0937 34.8067C71.7422 37.2002 71.7876 39.5398 73.0076 42.0199C74.9547 45.9731 73.5195 48.1535 70.6849 50.451C69.1755 51.6664 68.2928 53.095 68.1278 55.074C68.0058 56.5916 68.1397 58.17 67.3815 59.6291C67.0844 60.2428 66.6623 60.7906 66.1411 61.2389C65.6199 61.6871 65.0107 62.0263 64.3507 62.2357C63.5614 62.4933 62.7696 62.7439 61.9587 62.9382C59.6456 63.498 58.2414 65.0296 57.2344 67.0343C56.7957 67.9936 56.182 68.8666 55.4236 69.6105C54.0529 70.8728 52.3761 70.9782 50.6395 70.8025C49.8549 70.7252 49.0846 70.5355 48.3048 70.4161C46.6495 70.1608 45.1641 70.5941 43.7982 71.5028C43.1452 71.9384 42.4706 72.3459 41.8271 72.7932C39.9398 74.1047 37.9688 74.285 35.8901 73.2616C35.7041 73.1941 35.5118 73.1446 35.316 73.114C34.7491 72.4278 33.9549 72.0789 33.1631 71.7089C31.8475 70.3037 30.1228 70.1608 28.379 70.4372C26.4654 70.7393 24.5852 71.0344 22.6716 70.5285C21.9683 69.8962 21.3823 69.1233 20.5187 68.676C20.1145 67.8564 19.8298 66.9688 19.0835 66.3505C19.0484 66.0545 18.9459 65.77 18.7836 65.5179C18.6213 65.2658 18.4034 65.0525 18.1458 64.8938C17.6674 63.7064 16.4905 63.3692 15.4452 63.0319C14.0339 62.5635 12.613 62.1443 11.2232 61.6268C11.0223 61.1888 10.563 61.0319 10.2305 60.7392C10.2189 60.6207 10.1698 60.5087 10.09 60.4188C10.0103 60.3289 9.90382 60.2657 9.78558 60.238C9.78176 60.0595 9.73673 59.8842 9.65388 59.7252C9.57103 59.5663 9.4525 59.4277 9.30716 59.3199C9.02012 57.6993 8.74503 56.0763 8.76895 54.4229C8.77133 53.9982 8.62626 53.5853 8.35752 53.2519C8.29293 52.8889 8.37905 52.458 7.87911 52.2964C7.86224 52.0268 7.75982 51.769 7.58615 51.5591C7.41248 51.3492 7.17622 51.1976 6.91033 51.1254L6.67112 50.903C6.24534 50.1278 5.47509 49.732 4.78618 49.2402C4.48253 48.6392 4.07092 48.0966 3.57102 47.6383C3.03548 46.1609 2.95727 44.5617 3.34617 43.041C3.49334 42.9289 3.61081 42.7838 3.68866 42.6179C3.76652 42.452 3.80247 42.2702 3.79348 42.0878C4.98951 40.1159 5.41529 38.1065 4.34126 35.9145C3.94905 35.0286 3.60648 34.1225 3.31507 33.2001C2.75054 31.6521 3.31507 30.2469 3.83414 28.8137L4.03268 28.5607C4.74871 27.8613 5.46632 27.1587 6.18553 26.453C6.30842 26.4383 6.42298 26.3846 6.51159 26.2999C6.60019 26.2153 6.65793 26.1045 6.6759 25.9846L6.91511 25.7504C7.09649 25.7256 7.26468 25.6436 7.39418 25.5168C7.52368 25.3901 7.60743 25.2254 7.63273 25.0478C8.53453 24.4085 8.64935 23.4084 8.76895 22.4717C8.94596 21.0899 8.99141 19.6941 9.09188 18.303C9.17082 18.0688 9.24736 17.8346 9.33108 17.6004L9.57029 17.132L9.8095 16.6636L11.2208 15.2584C11.5061 15.1962 11.7601 15.0379 11.9384 14.8111C13.3928 14.42 14.907 14.1999 16.2202 13.406C16.4714 13.3849 16.7345 13.3849 16.9115 13.1507L17.189 12.954L17.6196 12.6823L17.8588 12.4481C17.9915 12.3832 18.1077 12.2899 18.1987 12.1752C18.2898 12.0605 18.3535 11.9273 18.385 11.7853C19.0428 11.3169 19.3634 10.6401 19.581 9.91174L19.8202 9.44335C20.0184 9.31242 20.1851 9.14097 20.309 8.94083C20.4329 8.74069 20.511 8.51663 20.5379 8.28409L20.7531 8.04989C20.8745 8.02882 20.9855 7.96927 21.0689 7.8804C21.1523 7.79153 21.2036 7.67828 21.2148 7.55808L21.6884 7.09203Z" stroke="#D3B474" stroke-width="2"/>
</mask>
<g mask="url(#mask0_159_10723)">
<path d="M21.6884 7.09203L21.942 6.87892C22.2305 6.81138 22.485 6.6453 22.6596 6.41053C24.6235 5.86251 26.5634 6.19741 28.5201 6.49952C29.8956 6.71498 31.2949 6.73372 32.4383 5.71497L32.9024 5.45969L33.1583 5.25126C33.4645 5.19037 33.7755 5.1365 33.876 4.78287L34.3137 4.50886L34.5744 4.30745C34.8902 4.26296 35.1988 4.21143 35.304 3.83906L35.7633 3.60487C37.763 2.78518 39.7197 2.97254 41.6477 3.83906C41.7482 4.20441 42.0592 4.25827 42.3654 4.30745C42.5356 4.54669 42.7919 4.71402 43.083 4.77584C43.2525 5.01577 43.5092 5.18329 43.8006 5.24423C43.8987 5.60958 44.2072 5.66579 44.5182 5.71262L44.9966 5.94682C46.0778 6.86018 47.3456 6.64941 48.5847 6.47142C50.4983 6.19507 52.3833 5.84612 54.2897 6.42692C54.5768 6.70327 54.8399 7.01709 55.2705 7.08969L57.1841 9.41291C57.5812 10.3731 57.9305 11.3591 58.8083 12.0289C58.8811 12.2509 59.008 12.4522 59.178 12.6154C59.3481 12.7786 59.5562 12.8988 59.7843 12.9657L60.0546 13.1577C60.2244 13.3919 60.4947 13.3919 60.7411 13.4341C62.2936 14.3544 64.1402 14.5184 65.7477 15.3076L67.1662 16.6941C67.9579 18.495 68.1086 20.399 68.2091 22.3288C68.3407 24.7785 69.941 26.268 71.9359 27.453L72.1751 27.6872C72.5316 28.2422 72.8928 28.7902 73.242 29.3523C74.1271 30.7996 74.0792 32.3032 73.4812 33.8325C73.3749 34.1655 73.2454 34.491 73.0937 34.8067C71.7422 37.2002 71.7876 39.5398 73.0076 42.0199C74.9547 45.9731 73.5195 48.1535 70.6849 50.451C69.1755 51.6664 68.2928 53.095 68.1278 55.074C68.0058 56.5916 68.1397 58.17 67.3815 59.6291C67.0844 60.2428 66.6623 60.7906 66.1411 61.2389C65.6199 61.6871 65.0107 62.0263 64.3507 62.2357C63.5614 62.4933 62.7696 62.7439 61.9587 62.9382C59.6456 63.498 58.2414 65.0296 57.2344 67.0343C56.7957 67.9936 56.182 68.8666 55.4236 69.6105C54.0529 70.8728 52.3761 70.9782 50.6395 70.8025C49.8549 70.7252 49.0846 70.5355 48.3048 70.4161C46.6495 70.1608 45.1641 70.5941 43.7982 71.5028C43.1452 71.9384 42.4706 72.3459 41.8271 72.7932C39.9398 74.1047 37.9688 74.285 35.8901 73.2616C35.7041 73.1941 35.5118 73.1446 35.316 73.114C34.7491 72.4278 33.9549 72.0789 33.1631 71.7089C31.8475 70.3037 30.1228 70.1608 28.379 70.4372C26.4654 70.7393 24.5852 71.0344 22.6716 70.5285C21.9683 69.8962 21.3823 69.1233 20.5187 68.676C20.1145 67.8564 19.8298 66.9688 19.0835 66.3505C19.0484 66.0545 18.9459 65.77 18.7836 65.5179C18.6213 65.2658 18.4034 65.0525 18.1458 64.8938C17.6674 63.7064 16.4905 63.3692 15.4452 63.0319C14.0339 62.5635 12.613 62.1443 11.2232 61.6268C11.0223 61.1888 10.563 61.0319 10.2305 60.7392C10.2189 60.6207 10.1698 60.5087 10.09 60.4188C10.0103 60.3289 9.90382 60.2657 9.78558 60.238C9.78176 60.0595 9.73673 59.8842 9.65388 59.7252C9.57103 59.5663 9.4525 59.4277 9.30716 59.3199C9.02012 57.6993 8.74503 56.0763 8.76895 54.4229C8.77133 53.9982 8.62626 53.5853 8.35752 53.2519C8.29293 52.8889 8.37905 52.458 7.87911 52.2964C7.86224 52.0268 7.75982 51.769 7.58615 51.5591C7.41248 51.3492 7.17622 51.1976 6.91033 51.1254L6.67112 50.903C6.24534 50.1278 5.47509 49.732 4.78618 49.2402C4.48253 48.6392 4.07092 48.0966 3.57102 47.6383C3.03548 46.1609 2.95727 44.5617 3.34617 43.041C3.49334 42.9289 3.61081 42.7838 3.68866 42.6179C3.76652 42.452 3.80247 42.2702 3.79348 42.0878C4.98951 40.1159 5.41529 38.1065 4.34126 35.9145C3.94905 35.0286 3.60648 34.1225 3.31507 33.2001C2.75054 31.6521 3.31507 30.2469 3.83414 28.8137L4.03268 28.5607C4.74871 27.8613 5.46632 27.1587 6.18553 26.453C6.30842 26.4383 6.42298 26.3846 6.51159 26.2999C6.60019 26.2153 6.65793 26.1045 6.6759 25.9846L6.91511 25.7504C7.09649 25.7256 7.26468 25.6436 7.39418 25.5168C7.52368 25.3901 7.60743 25.2254 7.63273 25.0478C8.53453 24.4085 8.64935 23.4084 8.76895 22.4717C8.94596 21.0899 8.99141 19.6941 9.09188 18.303C9.17082 18.0688 9.24736 17.8346 9.33108 17.6004L9.57029 17.132L9.8095 16.6636L11.2208 15.2584C11.5061 15.1962 11.7601 15.0379 11.9384 14.8111C13.3928 14.42 14.907 14.1999 16.2202 13.406C16.4714 13.3849 16.7345 13.3849 16.9115 13.1507L17.189 12.954L17.6196 12.6823L17.8588 12.4481C17.9915 12.3832 18.1077 12.2899 18.1987 12.1752C18.2898 12.0605 18.3535 11.9273 18.385 11.7853C19.0428 11.3169 19.3634 10.6401 19.581 9.91174L19.8202 9.44335C20.0184 9.31242 20.1851 9.14097 20.309 8.94083C20.4329 8.74069 20.511 8.51663 20.5379 8.28409L20.7531 8.04989C20.8745 8.02882 20.9855 7.96927 21.0689 7.8804C21.1523 7.79153 21.2036 7.67828 21.2148 7.55808L21.6884 7.09203Z" stroke="#D3B474" stroke-width="2"/>
</g>
</g>
<defs>
<clipPath id="clip0_159_10723">
<rect width="77" height="77" fill="white"/>
</clipPath>
</defs>
</svg>
